solid OpenSCAD_Model
  facet normal -1 -0 -0
    outer loop
      vertex -41.9817 -18.8356 0
      vertex -41.9817 -18.8356 2
      vertex -41.9817 42.0356 0
    endloop
  endfacet
  facet normal -1 0 0
    outer loop
      vertex -41.9817 42.0356 0
      vertex -41.9817 -18.8356 2
      vertex -41.9817 42.0356 2
    endloop
  endfacet
  facet normal -0.913545 -0.406737 -0
    outer loop
      vertex -41.9817 -18.8356 0
      vertex -41.2206 -20.545 0
      vertex -41.9817 -18.8356 2
    endloop
  endfacet
  facet normal -0.913545 -0.406737 0
    outer loop
      vertex -41.9817 -18.8356 2
      vertex -41.2206 -20.545 0
      vertex -41.2206 -20.545 2
    endloop
  endfacet
  facet normal -0 -0 -1
    outer loop
      vertex -41.9817 -18.8356 0
      vertex -41.9817 42.0356 0
      vertex -41.2206 -20.545 0
    endloop
  endfacet
  facet normal 0 0 -1
    outer loop
      vertex -41.2206 -20.545 0
      vertex -41.9817 42.0356 0
      vertex -41.2206 43.745 0
    endloop
  endfacet
  facet normal 0 -0 -1
    outer loop
      vertex -40.08 41.1 0
      vertex -41.2206 43.745 0
      vertex -39.83 44.9971 0
    endloop
  endfacet
  facet normal 0 -0 -1
    outer loop
      vertex -39.3478 42.8678 0
      vertex -39.83 44.9971 0
      vertex -38.0504 45.5753 0
    endloop
  endfacet
  facet normal 0 -0 -1
    outer loop
      vertex -35.8122 42.8678 0
      vertex -38.0504 45.5753 0
      vertex 48.9496 45.5753 0
    endloop
  endfacet
  facet normal 0 0 -1
    outer loop
      vertex 49.42 43.6 0
      vertex 50.8106 45.3798 0
      vertex 52.4311 44.4442 0
    endloop
  endfacet
  facet normal 0 0 -1
    outer loop
      vertex 51.1878 42.8678 0
      vertex 52.4311 44.4442 0
      vertex 53.531 42.9303 0
    endloop
  endfacet
  facet normal -0 0 -1
    outer loop
      vertex 51.92 41.1 0
      vertex 53.531 42.9303 0
      vertex 53.92 41.1 0
    endloop
  endfacet
  facet normal -0 0 -1
    outer loop
      vertex 45.0183 -13.4247 0
      vertex 53.92 41.1 0
      vertex 53.92 -17.9 0
    endloop
  endfacet
  facet normal -0 0 -1
    outer loop
      vertex 46.4178 -19.6678 0
      vertex 53.92 -17.9 0
      vertex 53.531 -19.7303 0
    endloop
  endfacet
  facet normal -0 0 -1
    outer loop
      vertex 44.65 -20.4 0
      vertex 53.531 -19.7303 0
      vertex 52.4311 -21.2442 0
    endloop
  endfacet
  facet normal 0 0 -1
    outer loop
      vertex -41.2206 -20.545 0
      vertex 52.4311 -21.2442 0
      vertex 50.8106 -22.1798 0
    endloop
  endfacet
  facet normal 0 0 -1
    outer loop
      vertex -41.2206 -20.545 0
      vertex 50.8106 -22.1798 0
      vertex 48.9496 -22.3753 0
    endloop
  endfacet
  facet normal 0 0 -1
    outer loop
      vertex -41.2206 -20.545 0
      vertex 48.9496 -22.3753 0
      vertex -38.0504 -22.3753 0
    endloop
  endfacet
  facet normal 0 0 -1
    outer loop
      vertex -41.2206 -20.545 0
      vertex -38.0504 -22.3753 0
      vertex -39.83 -21.7971 0
    endloop
  endfacet
  facet normal 0 0 -1
    outer loop
      vertex -32.5508 36.6247 0
      vertex 48.9496 45.5753 0
      vertex 50.8106 45.3798 0
    endloop
  endfacet
  facet normal -0 0 -1
    outer loop
      vertex 49.42 43.6 0
      vertex 52.4311 44.4442 0
      vertex 51.1878 42.8678 0
    endloop
  endfacet
  facet normal 0 0 -1
    outer loop
      vertex -41.2206 -20.545 0
      vertex -39.3478 -19.6678 0
      vertex -37.58 -20.4 0
    endloop
  endfacet
  facet normal 0 -0 -1
    outer loop
      vertex -32.199 28.5297 0
      vertex -34.5422 28.5922 0
      vertex -31.81 30.36 0
    endloop
  endfacet
  facet normal 0 0 -1
    outer loop
      vertex 42.8822 -16.1322 0
      vertex 45.0183 -13.4247 0
      vertex 44.65 -15.4 0
    endloop
  endfacet
  facet normal 0 0 -1
    outer loop
      vertex 38.61 32.86 0
      vertex 49.42 38.6 0
      vertex 51.1878 39.3322 0
    endloop
  endfacet
  facet normal -0 0 -1
    outer loop
      vertex 34.2083 31.2956 0
      vertex 36.8422 32.1278 0
      vertex 34.2083 29.4244 0
    endloop
  endfacet
  facet normal 0 0 -1
    outer loop
      vertex -40.08 41.1 0
      vertex -39.83 44.9971 0
      vertex -39.3478 42.8678 0
    endloop
  endfacet
  facet normal 0 -0 -1
    outer loop
      vertex -41.2206 -20.545 0
      vertex -41.2206 43.745 0
      vertex -40.08 41.1 0
    endloop
  endfacet
  facet normal 0 0 -1
    outer loop
      vertex -39.3478 39.3322 0
      vertex -41.2206 -20.545 0
      vertex -40.08 41.1 0
    endloop
  endfacet
  facet normal -0 -0 -1
    outer loop
      vertex -37.58 43.6 0
      vertex -38.0504 45.5753 0
      vertex -35.8122 42.8678 0
    endloop
  endfacet
  facet normal 0 -0 -1
    outer loop
      vertex -32.5508 36.6247 0
      vertex -37.58 38.6 0
      vertex 48.9496 45.5753 0
    endloop
  endfacet
  facet normal 0 0 -1
    outer loop
      vertex -39.3478 42.8678 0
      vertex -38.0504 45.5753 0
      vertex -37.58 43.6 0
    endloop
  endfacet
  facet normal 0 0 -1
    outer loop
      vertex -37.58 38.6 0
      vertex -35.8122 39.3322 0
      vertex 48.9496 45.5753 0
    endloop
  endfacet
  facet normal 0 0 -1
    outer loop
      vertex -35.8122 39.3322 0
      vertex -35.08 41.1 0
      vertex 48.9496 45.5753 0
    endloop
  endfacet
  facet normal 0 -0 -1
    outer loop
      vertex -35.08 41.1 0
      vertex -35.8122 42.8678 0
      vertex 48.9496 45.5753 0
    endloop
  endfacet
  facet normal 0 0 -1
    outer loop
      vertex -38.0778 28.5922 0
      vertex -41.2206 -20.545 0
      vertex -38.81 30.36 0
    endloop
  endfacet
  facet normal 0 0 -1
    outer loop
      vertex -38.0778 28.5922 0
      vertex -39.3478 -16.1322 0
      vertex -40.08 -17.9 0
    endloop
  endfacet
  facet normal 0 0 -1
    outer loop
      vertex -41.2206 -20.545 0
      vertex -39.3478 39.3322 0
      vertex -38.81 30.36 0
    endloop
  endfacet
  facet normal -0 0 -1
    outer loop
      vertex -32.5508 36.6247 0
      vertex 50.8106 45.3798 0
      vertex 38.6126 36.6247 0
    endloop
  endfacet
  facet normal 0 0 -1
    outer loop
      vertex -39.3478 -16.1322 0
      vertex -38.0778 28.5922 0
      vertex -37.58 -15.4 0
    endloop
  endfacet
  facet normal -0 -0 -1
    outer loop
      vertex -36.31 32.86 0
      vertex -37.58 38.6 0
      vertex -34.5422 32.1278 0
    endloop
  endfacet
  facet normal 0 0 -1
    outer loop
      vertex -38.0778 32.1278 0
      vertex -37.58 38.6 0
      vertex -36.31 32.86 0
    endloop
  endfacet
  facet normal 0 0 -1
    outer loop
      vertex -31.81 30.36 0
      vertex -34.5422 32.1278 0
      vertex -32.5508 36.6247 0
    endloop
  endfacet
  facet normal 0 0 -1
    outer loop
      vertex -36.31 27.86 0
      vertex -37.58 -15.4 0
      vertex -38.0778 28.5922 0
    endloop
  endfacet
  facet normal 0 0 -1
    outer loop
      vertex -37.58 -15.4 0
      vertex -36.31 27.86 0
      vertex -33.08 27.3172 0
    endloop
  endfacet
  facet normal 0 0 -1
    outer loop
      vertex 45.0183 -13.4247 0
      vertex -35.8122 -16.1322 0
      vertex -33.08 -13.4247 0
    endloop
  endfacet
  facet normal 0 0 -1
    outer loop
      vertex -33.08 -13.4247 0
      vertex -37.58 -15.4 0
      vertex -33.08 27.3172 0
    endloop
  endfacet
  facet normal -0 0 -1
    outer loop
      vertex 45.0183 30.3911 0
      vertex 53.92 41.1 0
      vertex 45.0183 -13.4247 0
    endloop
  endfacet
  facet normal 0 0 -1
    outer loop
      vertex 47.6522 39.3322 0
      vertex 34.2083 31.2956 0
      vertex 34.9694 33.005 0
    endloop
  endfacet
  facet normal 0 0 -1
    outer loop
      vertex 40.3778 28.5922 0
      vertex 53.92 41.1 0
      vertex 45.0183 30.3911 0
    endloop
  endfacet
  facet normal 0 0 -1
    outer loop
      vertex 40.0006 26.0802 0
      vertex 45.0183 30.3911 0
      vertex 41.6211 27.0158 0
    endloop
  endfacet
  facet normal -0 0 -1
    outer loop
      vertex 36.36 26.4629 0
      vertex 45.0183 30.3911 0
      vertex 38.1396 25.8847 0
    endloop
  endfacet
  facet normal 0 0 -1
    outer loop
      vertex 38.1396 25.8847 0
      vertex 45.0183 30.3911 0
      vertex 40.0006 26.0802 0
    endloop
  endfacet
  facet normal -0 0 -1
    outer loop
      vertex 38.61 32.86 0
      vertex 51.1878 39.3322 0
      vertex 40.3778 32.1278 0
    endloop
  endfacet
  facet normal 0 0 -1
    outer loop
      vertex -32.199 28.5297 0
      vertex -36.31 27.86 0
      vertex -34.5422 28.5922 0
    endloop
  endfacet
  facet normal 0 0 -1
    outer loop
      vertex 51.92 41.1 0
      vertex 53.92 41.1 0
      vertex 51.1878 39.3322 0
    endloop
  endfacet
  facet normal 0 -0 -1
    outer loop
      vertex 36.11 30.36 0
      vertex 34.2083 29.4244 0
      vertex 36.8422 32.1278 0
    endloop
  endfacet
  facet normal 0 0 -1
    outer loop
      vertex 36.8422 28.5922 0
      vertex 34.9694 27.715 0
      vertex 34.2083 29.4244 0
    endloop
  endfacet
  facet normal 0 0 -1
    outer loop
      vertex 49.42 38.6 0
      vertex 38.61 32.86 0
      vertex 36.8422 32.1278 0
    endloop
  endfacet
  facet normal -0 0 -1
    outer loop
      vertex 38.6126 36.6247 0
      vertex 50.8106 45.3798 0
      vertex 34.9694 33.005 0
    endloop
  endfacet
  facet normal 0 -0 -1
    outer loop
      vertex -34.5422 32.1278 0
      vertex -37.58 38.6 0
      vertex -32.5508 36.6247 0
    endloop
  endfacet
  facet normal 0 0 -1
    outer loop
      vertex -31.81 30.36 0
      vertex -33.81 30.36 0
      vertex -34.5422 32.1278 0
    endloop
  endfacet
  facet normal 0 0 -1
    outer loop
      vertex -34.5422 28.5922 0
      vertex -33.81 30.36 0
      vertex -31.81 30.36 0
    endloop
  endfacet
  facet normal 0 0 -1
    outer loop
      vertex 42.8822 -19.6678 0
      vertex -41.2206 -20.545 0
      vertex -37.58 -20.4 0
    endloop
  endfacet
  facet normal 0 -0 -1
    outer loop
      vertex -33.08 27.3172 0
      vertex -36.31 27.86 0
      vertex -32.199 28.5297 0
    endloop
  endfacet
  facet normal 0 0 -1
    outer loop
      vertex 42.8822 -19.6678 0
      vertex -35.8122 -19.6678 0
      vertex 42.15 -17.9 0
    endloop
  endfacet
  facet normal 0 0 -1
    outer loop
      vertex 38.61 27.86 0
      vertex 36.36 26.4629 0
      vertex 36.8422 28.5922 0
    endloop
  endfacet
  facet normal -0 0 -1
    outer loop
      vertex 34.9694 27.715 0
      vertex 36.8422 28.5922 0
      vertex 36.36 26.4629 0
    endloop
  endfacet
  facet normal -0 0 -1
    outer loop
      vertex 40.3778 32.1278 0
      vertex 53.92 41.1 0
      vertex 41.11 30.36 0
    endloop
  endfacet
  facet normal 0 0 -1
    outer loop
      vertex 36.36 26.4629 0
      vertex 38.61 27.86 0
      vertex 45.0183 30.3911 0
    endloop
  endfacet
  facet normal 0 0 -1
    outer loop
      vertex 38.61 27.86 0
      vertex 40.3778 28.5922 0
      vertex 45.0183 30.3911 0
    endloop
  endfacet
  facet normal -0 0 -1
    outer loop
      vertex 41.11 30.36 0
      vertex 53.92 41.1 0
      vertex 40.3778 28.5922 0
    endloop
  endfacet
  facet normal 0 0 -1
    outer loop
      vertex -37.58 38.6 0
      vertex -38.0778 32.1278 0
      vertex -38.81 30.36 0
    endloop
  endfacet
  facet normal 0 0 -1
    outer loop
      vertex -38.0778 28.5922 0
      vertex -40.08 -17.9 0
      vertex -41.2206 -20.545 0
    endloop
  endfacet
  facet normal 0 0 -1
    outer loop
      vertex -37.58 38.6 0
      vertex -38.81 30.36 0
      vertex -39.3478 39.3322 0
    endloop
  endfacet
  facet normal -0 0 -1
    outer loop
      vertex 51.1878 39.3322 0
      vertex 53.92 41.1 0
      vertex 40.3778 32.1278 0
    endloop
  endfacet
  facet normal -0 -0 -1
    outer loop
      vertex 46.4178 -16.1322 0
      vertex 45.0183 -13.4247 0
      vertex 53.92 -17.9 0
    endloop
  endfacet
  facet normal 0 0 -1
    outer loop
      vertex 44.65 -20.4 0
      vertex -41.2206 -20.545 0
      vertex 42.8822 -19.6678 0
    endloop
  endfacet
  facet normal 0 0 -1
    outer loop
      vertex 46.4178 -19.6678 0
      vertex 53.531 -19.7303 0
      vertex 44.65 -20.4 0
    endloop
  endfacet
  facet normal -0 0 -1
    outer loop
      vertex -41.2206 -20.545 0
      vertex 44.65 -20.4 0
      vertex 52.4311 -21.2442 0
    endloop
  endfacet
  facet normal 0 0 -1
    outer loop
      vertex 47.15 -17.9 0
      vertex 53.92 -17.9 0
      vertex 46.4178 -19.6678 0
    endloop
  endfacet
  facet normal 0 0 -1
    outer loop
      vertex 42.8822 -19.6678 0
      vertex -37.58 -20.4 0
      vertex -35.8122 -19.6678 0
    endloop
  endfacet
  facet normal -0 -0 -1
    outer loop
      vertex 47.15 -17.9 0
      vertex 46.4178 -16.1322 0
      vertex 53.92 -17.9 0
    endloop
  endfacet
  facet normal 0 0 -1
    outer loop
      vertex 47.6522 39.3322 0
      vertex 34.9694 33.005 0
      vertex 46.92 41.1 0
    endloop
  endfacet
  facet normal 0 0 -1
    outer loop
      vertex -35.08 -17.9 0
      vertex 45.0183 -13.4247 0
      vertex 42.8822 -16.1322 0
    endloop
  endfacet
  facet normal -0 0 -1
    outer loop
      vertex -35.08 -17.9 0
      vertex 42.8822 -16.1322 0
      vertex 42.15 -17.9 0
    endloop
  endfacet
  facet normal 0 -0 -1
    outer loop
      vertex 36.8422 32.1278 0
      vertex 34.2083 31.2956 0
      vertex 47.6522 39.3322 0
    endloop
  endfacet
  facet normal 0 0 -1
    outer loop
      vertex 36.8422 28.5922 0
      vertex 34.2083 29.4244 0
      vertex 36.11 30.36 0
    endloop
  endfacet
  facet normal 0 0 -1
    outer loop
      vertex -35.08 -17.9 0
      vertex 42.15 -17.9 0
      vertex -35.8122 -19.6678 0
    endloop
  endfacet
  facet normal -0 0 -1
    outer loop
      vertex 51.1878 42.8678 0
      vertex 53.531 42.9303 0
      vertex 51.92 41.1 0
    endloop
  endfacet
  facet normal 0 0 -1
    outer loop
      vertex 49.42 38.6 0
      vertex 36.8422 32.1278 0
      vertex 47.6522 39.3322 0
    endloop
  endfacet
  facet normal 0 0 -1
    outer loop
      vertex 47.6522 42.8678 0
      vertex 50.8106 45.3798 0
      vertex 49.42 43.6 0
    endloop
  endfacet
  facet normal 0 0 -1
    outer loop
      vertex 34.9694 33.005 0
      vertex 50.8106 45.3798 0
      vertex 47.6522 42.8678 0
    endloop
  endfacet
  facet normal 0 0 -1
    outer loop
      vertex 34.9694 33.005 0
      vertex 47.6522 42.8678 0
      vertex 46.92 41.1 0
    endloop
  endfacet
  facet normal 0 0 -1
    outer loop
      vertex -39.3478 -19.6678 0
      vertex -41.2206 -20.545 0
      vertex -40.08 -17.9 0
    endloop
  endfacet
  facet normal -0 0 -1
    outer loop
      vertex -37.58 -15.4 0
      vertex -33.08 -13.4247 0
      vertex -35.8122 -16.1322 0
    endloop
  endfacet
  facet normal 0 0 -1
    outer loop
      vertex 45.0183 -13.4247 0
      vertex -35.08 -17.9 0
      vertex -35.8122 -16.1322 0
    endloop
  endfacet
  facet normal -0 0 -1
    outer loop
      vertex 44.65 -15.4 0
      vertex 45.0183 -13.4247 0
      vertex 46.4178 -16.1322 0
    endloop
  endfacet
  facet normal -0.913545 0.406737 0
    outer loop
      vertex -41.9817 42.0356 0
      vertex -41.9817 42.0356 2
      vertex -41.2206 43.745 0
    endloop
  endfacet
  facet normal -0.913545 0.406737 0
    outer loop
      vertex -41.2206 43.745 0
      vertex -41.9817 42.0356 2
      vertex -41.2206 43.745 2
    endloop
  endfacet
  facet normal 0 -0 1
    outer loop
      vertex -41.9817 42.0356 2
      vertex -41.9817 -18.8356 2
      vertex -41.2206 -20.545 2
    endloop
  endfacet
  facet normal -0 0 1
    outer loop
      vertex -40.1642 -18.8406 2
      vertex -41.9817 42.0356 2
      vertex -41.2206 -20.545 2
    endloop
  endfacet
  facet normal 0 0 1
    outer loop
      vertex 49.42 43.6 2
      vertex 51.1878 42.8678 2
      vertex 53.531 42.9303 2
    endloop
  endfacet
  facet normal 0 0 1
    outer loop
      vertex -35.8122 42.8678 2
      vertex 49.42 43.6 2
      vertex 52.4311 44.4442 2
    endloop
  endfacet
  facet normal 0 0 1
    outer loop
      vertex -35.8122 42.8678 2
      vertex 50.8106 45.3798 2
      vertex 48.9496 45.5753 2
    endloop
  endfacet
  facet normal 0 0 1
    outer loop
      vertex -35.8122 42.8678 2
      vertex -35.08 41.1 2
      vertex 46.92 41.1 2
    endloop
  endfacet
  facet normal 0 0 1
    outer loop
      vertex -37.58 43.6 2
      vertex -35.8122 42.8678 2
      vertex 48.9496 45.5753 2
    endloop
  endfacet
  facet normal 0 -0 1
    outer loop
      vertex -39.83 44.9971 2
      vertex -41.9817 42.0356 2
      vertex -38.0504 45.5753 2
    endloop
  endfacet
  facet normal 0 -0 1
    outer loop
      vertex -41.2206 43.745 2
      vertex -41.9817 42.0356 2
      vertex -39.83 44.9971 2
    endloop
  endfacet
  facet normal 0 0 1
    outer loop
      vertex -39.83 -21.7971 2
      vertex -40.1642 -18.8406 2
      vertex -41.2206 -20.545 2
    endloop
  endfacet
  facet normal -0 0 1
    outer loop
      vertex -40.1642 -16.9594 2
      vertex -41.9817 42.0356 2
      vertex -40.1642 -18.8406 2
    endloop
  endfacet
  facet normal 0 0 1
    outer loop
      vertex -38.955 -15.5184 2
      vertex -37.1025 -15.1918 2
      vertex -41.9817 42.0356 2
    endloop
  endfacet
  facet normal -0 0 1
    outer loop
      vertex -37.1025 -20.6082 2
      vertex -38.955 -20.2816 2
      vertex -38.0504 -22.3753 2
    endloop
  endfacet
  facet normal 0 0 1
    outer loop
      vertex -35.4734 -19.6677 2
      vertex -37.1025 -20.6082 2
      vertex -38.0504 -22.3753 2
    endloop
  endfacet
  facet normal 0 0 1
    outer loop
      vertex -31.81 30.36 2
      vertex -32.5508 36.6247 2
      vertex -37.58 38.6 2
    endloop
  endfacet
  facet normal -0 -0 1
    outer loop
      vertex -39.3478 39.3322 2
      vertex -41.9817 42.0356 2
      vertex -37.1025 -15.1918 2
    endloop
  endfacet
  facet normal 0 0 1
    outer loop
      vertex -31.81 30.36 2
      vertex -37.58 38.6 2
      vertex -39.3478 39.3322 2
    endloop
  endfacet
  facet normal 0 0 1
    outer loop
      vertex 48.9496 -22.3753 2
      vertex -37.1025 -15.1918 2
      vertex -35.4734 -16.1323 2
    endloop
  endfacet
  facet normal 0 0 1
    outer loop
      vertex 48.9496 -22.3753 2
      vertex -35.4734 -16.1323 2
      vertex -34.83 -17.9 2
    endloop
  endfacet
  facet normal -0 0 1
    outer loop
      vertex 48.9496 -22.3753 2
      vertex -35.4734 -19.6677 2
      vertex -38.0504 -22.3753 2
    endloop
  endfacet
  facet normal 0 0 1
    outer loop
      vertex 48.9496 -22.3753 2
      vertex -34.83 -17.9 2
      vertex -35.4734 -19.6677 2
    endloop
  endfacet
  facet normal 0 0 1
    outer loop
      vertex -38.0504 -22.3753 2
      vertex -38.955 -20.2816 2
      vertex -39.83 -21.7971 2
    endloop
  endfacet
  facet normal -0 -0 1
    outer loop
      vertex -38.8942 29.4194 2
      vertex -39.3478 39.3322 2
      vertex -37.1025 -15.1918 2
    endloop
  endfacet
  facet normal 0 -0 1
    outer loop
      vertex -35.8122 39.3322 2
      vertex -37.58 38.6 2
      vertex -32.5508 36.6247 2
    endloop
  endfacet
  facet normal 0 0 1
    outer loop
      vertex 40.0006 26.0802 2
      vertex 41.6211 27.0158 2
      vertex 40.7166 28.5923 2
    endloop
  endfacet
  facet normal -0 0 1
    outer loop
      vertex 47.6522 42.8678 2
      vertex 49.42 43.6 2
      vertex -35.8122 42.8678 2
    endloop
  endfacet
  facet normal 0 0 1
    outer loop
      vertex -38.0504 45.5753 2
      vertex -41.9817 42.0356 2
      vertex -39.3478 42.8678 2
    endloop
  endfacet
  facet normal 0 0 1
    outer loop
      vertex -38.0504 45.5753 2
      vertex -37.58 43.6 2
      vertex 48.9496 45.5753 2
    endloop
  endfacet
  facet normal 0 -0 1
    outer loop
      vertex -38.0504 45.5753 2
      vertex -39.3478 42.8678 2
      vertex -37.58 43.6 2
    endloop
  endfacet
  facet normal 0 0 1
    outer loop
      vertex -40.08 41.1 2
      vertex -39.3478 42.8678 2
      vertex -41.9817 42.0356 2
    endloop
  endfacet
  facet normal -0 -0 1
    outer loop
      vertex -37.685 27.9784 2
      vertex -38.8942 29.4194 2
      vertex -37.1025 -15.1918 2
    endloop
  endfacet
  facet normal -0 0 1
    outer loop
      vertex -38.8942 31.3006 2
      vertex -39.3478 39.3322 2
      vertex -38.8942 29.4194 2
    endloop
  endfacet
  facet normal -0 0 1
    outer loop
      vertex -37.685 32.7416 2
      vertex -39.3478 39.3322 2
      vertex -38.8942 31.3006 2
    endloop
  endfacet
  facet normal -0 0 1
    outer loop
      vertex -35.8325 33.0682 2
      vertex -39.3478 39.3322 2
      vertex -37.685 32.7416 2
    endloop
  endfacet
  facet normal 0 0 1
    outer loop
      vertex -34.2034 32.1277 2
      vertex -39.3478 39.3322 2
      vertex -35.8325 33.0682 2
    endloop
  endfacet
  facet normal 0 -0 1
    outer loop
      vertex -33.56 30.36 2
      vertex -34.2034 28.5923 2
      vertex -32.199 28.5297 2
    endloop
  endfacet
  facet normal 0 -0 1
    outer loop
      vertex -34.2034 28.5923 2
      vertex -35.8325 27.6518 2
      vertex -33.08 27.3172 2
    endloop
  endfacet
  facet normal 0 0 1
    outer loop
      vertex -33.08 27.3172 2
      vertex -32.199 28.5297 2
      vertex -34.2034 28.5923 2
    endloop
  endfacet
  facet normal 0 0 1
    outer loop
      vertex -33.08 -13.4247 2
      vertex -33.08 27.3172 2
      vertex -35.8325 27.6518 2
    endloop
  endfacet
  facet normal -0 0 1
    outer loop
      vertex -33.08 -13.4247 2
      vertex -37.685 27.9784 2
      vertex -37.1025 -15.1918 2
    endloop
  endfacet
  facet normal 0 0 1
    outer loop
      vertex -33.08 -13.4247 2
      vertex -35.8325 27.6518 2
      vertex -37.685 27.9784 2
    endloop
  endfacet
  facet normal 0 0 1
    outer loop
      vertex 48.9496 -22.3753 2
      vertex -33.08 -13.4247 2
      vertex -37.1025 -15.1918 2
    endloop
  endfacet
  facet normal -0 -0 1
    outer loop
      vertex 37.235 27.9784 2
      vertex 36.0258 29.4194 2
      vertex 38.1396 25.8847 2
    endloop
  endfacet
  facet normal 0 0 1
    outer loop
      vertex -32.5508 36.6247 2
      vertex 38.6126 36.6247 2
      vertex -35.08 41.1 2
    endloop
  endfacet
  facet normal 0 0 1
    outer loop
      vertex -32.5508 36.6247 2
      vertex -35.08 41.1 2
      vertex -35.8122 39.3322 2
    endloop
  endfacet
  facet normal 0 -0 1
    outer loop
      vertex 45.0183 30.3911 2
      vertex 45.0183 -13.4247 2
      vertex 53.92 -17.9 2
    endloop
  endfacet
  facet normal 0 0 1
    outer loop
      vertex 45.0183 -13.4247 2
      vertex 45.1275 -15.1918 2
      vertex 53.531 -19.7303 2
    endloop
  endfacet
  facet normal -0 0 1
    outer loop
      vertex 47.6522 39.3322 2
      vertex -35.08 41.1 2
      vertex 38.6126 36.6247 2
    endloop
  endfacet
  facet normal 0 0 1
    outer loop
      vertex 37.235 32.7416 2
      vertex 39.0875 33.0682 2
      vertex 38.6126 36.6247 2
    endloop
  endfacet
  facet normal 0 0 1
    outer loop
      vertex 34.9694 27.715 2
      vertex 36.36 26.4629 2
      vertex 34.2083 31.2956 2
    endloop
  endfacet
  facet normal 0 -0 1
    outer loop
      vertex 47.4 -17.9 2
      vertex 46.7566 -19.6677 2
      vertex 50.8106 -22.1798 2
    endloop
  endfacet
  facet normal 0 0 1
    outer loop
      vertex 36.36 26.4629 2
      vertex 38.1396 25.8847 2
      vertex 36.0258 29.4194 2
    endloop
  endfacet
  facet normal 0 -0 1
    outer loop
      vertex 34.2083 31.2956 2
      vertex 34.2083 29.4244 2
      vertex 34.9694 27.715 2
    endloop
  endfacet
  facet normal 0 -0 1
    outer loop
      vertex 41.36 30.36 2
      vertex 40.7166 28.5923 2
      vertex 41.6211 27.0158 2
    endloop
  endfacet
  facet normal 0 -0 1
    outer loop
      vertex 34.9694 33.005 2
      vertex 34.2083 31.2956 2
      vertex 36.36 26.4629 2
    endloop
  endfacet
  facet normal 0 0 1
    outer loop
      vertex 36.0258 29.4194 2
      vertex 36.0258 31.3006 2
      vertex 34.9694 33.005 2
    endloop
  endfacet
  facet normal 0 -0 1
    outer loop
      vertex 39.0875 27.6518 2
      vertex 38.1396 25.8847 2
      vertex 40.0006 26.0802 2
    endloop
  endfacet
  facet normal 0 0 1
    outer loop
      vertex 53.92 41.1 2
      vertex 45.0183 30.3911 2
      vertex 53.92 -17.9 2
    endloop
  endfacet
  facet normal 0 0 1
    outer loop
      vertex 53.92 41.1 2
      vertex 41.6211 27.0158 2
      vertex 45.0183 30.3911 2
    endloop
  endfacet
  facet normal -0 0 1
    outer loop
      vertex 53.92 -17.9 2
      vertex 45.0183 -13.4247 2
      vertex 53.531 -19.7303 2
    endloop
  endfacet
  facet normal 0 0 1
    outer loop
      vertex -35.8122 42.8678 2
      vertex 52.4311 44.4442 2
      vertex 50.8106 45.3798 2
    endloop
  endfacet
  facet normal 0 0 1
    outer loop
      vertex 34.9694 33.005 2
      vertex 36.36 26.4629 2
      vertex 36.0258 29.4194 2
    endloop
  endfacet
  facet normal 0 0 1
    outer loop
      vertex 46.7566 -16.1323 2
      vertex 47.4 -17.9 2
      vertex 52.4311 -21.2442 2
    endloop
  endfacet
  facet normal 0 0 1
    outer loop
      vertex 38.6126 36.6247 2
      vertex 34.9694 33.005 2
      vertex 36.0258 31.3006 2
    endloop
  endfacet
  facet normal -0 0 1
    outer loop
      vertex 39.0875 27.6518 2
      vertex 37.235 27.9784 2
      vertex 38.1396 25.8847 2
    endloop
  endfacet
  facet normal 0 0 1
    outer loop
      vertex 38.6126 36.6247 2
      vertex 36.0258 31.3006 2
      vertex 37.235 32.7416 2
    endloop
  endfacet
  facet normal 0 0 1
    outer loop
      vertex 40.7166 28.5923 2
      vertex 39.0875 27.6518 2
      vertex 40.0006 26.0802 2
    endloop
  endfacet
  facet normal 0 0 1
    outer loop
      vertex 49.42 38.6 2
      vertex 38.6126 36.6247 2
      vertex 40.7166 32.1277 2
    endloop
  endfacet
  facet normal 0 0 1
    outer loop
      vertex 53.92 41.1 2
      vertex 41.36 30.36 2
      vertex 41.6211 27.0158 2
    endloop
  endfacet
  facet normal 0 0 1
    outer loop
      vertex 53.92 41.1 2
      vertex 40.7166 32.1277 2
      vertex 41.36 30.36 2
    endloop
  endfacet
  facet normal 0 0 1
    outer loop
      vertex 39.0875 33.0682 2
      vertex 40.7166 32.1277 2
      vertex 38.6126 36.6247 2
    endloop
  endfacet
  facet normal 0 0 1
    outer loop
      vertex 43.275 -20.2816 2
      vertex 42.0658 -18.8406 2
      vertex -33.08 -13.4247 2
    endloop
  endfacet
  facet normal -0 0 1
    outer loop
      vertex 49.42 38.6 2
      vertex 47.6522 39.3322 2
      vertex 38.6126 36.6247 2
    endloop
  endfacet
  facet normal 0 0 1
    outer loop
      vertex 47.4 -17.9 2
      vertex 50.8106 -22.1798 2
      vertex 52.4311 -21.2442 2
    endloop
  endfacet
  facet normal -0 0 1
    outer loop
      vertex 53.531 -19.7303 2
      vertex 46.7566 -16.1323 2
      vertex 52.4311 -21.2442 2
    endloop
  endfacet
  facet normal 0 0 1
    outer loop
      vertex 53.531 -19.7303 2
      vertex 45.1275 -15.1918 2
      vertex 46.7566 -16.1323 2
    endloop
  endfacet
  facet normal 0 0 1
    outer loop
      vertex 46.7566 -19.6677 2
      vertex 48.9496 -22.3753 2
      vertex 50.8106 -22.1798 2
    endloop
  endfacet
  facet normal 0 0 1
    outer loop
      vertex 51.1878 42.8678 2
      vertex 51.92 41.1 2
      vertex 53.92 41.1 2
    endloop
  endfacet
  facet normal 0 -0 1
    outer loop
      vertex 46.7566 -19.6677 2
      vertex 45.1275 -20.6082 2
      vertex 48.9496 -22.3753 2
    endloop
  endfacet
  facet normal 0 0 1
    outer loop
      vertex 48.9496 -22.3753 2
      vertex 45.1275 -20.6082 2
      vertex -33.08 -13.4247 2
    endloop
  endfacet
  facet normal 0 0 1
    outer loop
      vertex 45.1275 -20.6082 2
      vertex 43.275 -20.2816 2
      vertex -33.08 -13.4247 2
    endloop
  endfacet
  facet normal 0 0 1
    outer loop
      vertex 47.6522 39.3322 2
      vertex 46.92 41.1 2
      vertex -35.08 41.1 2
    endloop
  endfacet
  facet normal 0 -0 1
    outer loop
      vertex 51.92 41.1 2
      vertex 51.1878 39.3322 2
      vertex 53.92 41.1 2
    endloop
  endfacet
  facet normal 0 -0 1
    outer loop
      vertex 52.4311 44.4442 2
      vertex 49.42 43.6 2
      vertex 53.531 42.9303 2
    endloop
  endfacet
  facet normal 0 -0 1
    outer loop
      vertex 53.531 42.9303 2
      vertex 51.1878 42.8678 2
      vertex 53.92 41.1 2
    endloop
  endfacet
  facet normal 0 0 1
    outer loop
      vertex 53.92 41.1 2
      vertex 51.1878 39.3322 2
      vertex 40.7166 32.1277 2
    endloop
  endfacet
  facet normal 0 0 1
    outer loop
      vertex 51.1878 39.3322 2
      vertex 49.42 38.6 2
      vertex 40.7166 32.1277 2
    endloop
  endfacet
  facet normal 0 0 1
    outer loop
      vertex 46.92 41.1 2
      vertex 47.6522 42.8678 2
      vertex -35.8122 42.8678 2
    endloop
  endfacet
  facet normal 0 0 1
    outer loop
      vertex -40.1642 -16.9594 2
      vertex -38.955 -15.5184 2
      vertex -41.9817 42.0356 2
    endloop
  endfacet
  facet normal -0 0 1
    outer loop
      vertex -38.955 -20.2816 2
      vertex -40.1642 -18.8406 2
      vertex -39.83 -21.7971 2
    endloop
  endfacet
  facet normal 0 0 1
    outer loop
      vertex -31.81 30.36 2
      vertex -39.3478 39.3322 2
      vertex -34.2034 32.1277 2
    endloop
  endfacet
  facet normal 0 0 1
    outer loop
      vertex -32.199 28.5297 2
      vertex -31.81 30.36 2
      vertex -33.56 30.36 2
    endloop
  endfacet
  facet normal 0 0 1
    outer loop
      vertex -34.2034 32.1277 2
      vertex -33.56 30.36 2
      vertex -31.81 30.36 2
    endloop
  endfacet
  facet normal 0 0 1
    outer loop
      vertex -39.3478 39.3322 2
      vertex -40.08 41.1 2
      vertex -41.9817 42.0356 2
    endloop
  endfacet
  facet normal 0 -0 1
    outer loop
      vertex 45.0183 -13.4247 2
      vertex 43.275 -15.5184 2
      vertex 45.1275 -15.1918 2
    endloop
  endfacet
  facet normal 0 0 1
    outer loop
      vertex 45.0183 -13.4247 2
      vertex 42.0658 -16.9594 2
      vertex 43.275 -15.5184 2
    endloop
  endfacet
  facet normal -0 0 1
    outer loop
      vertex 42.0658 -16.9594 2
      vertex -33.08 -13.4247 2
      vertex 42.0658 -18.8406 2
    endloop
  endfacet
  facet normal 0 0 1
    outer loop
      vertex 45.0183 -13.4247 2
      vertex -33.08 -13.4247 2
      vertex 42.0658 -16.9594 2
    endloop
  endfacet
  facet normal -0.669131 -0.743145 0
    outer loop
      vertex -41.2206 -20.545 2
      vertex -41.2206 -20.545 0
      vertex -39.83 -21.7971 0
    endloop
  endfacet
  facet normal -0.669131 -0.743145 0
    outer loop
      vertex -39.83 -21.7971 2
      vertex -41.2206 -20.545 2
      vertex -39.83 -21.7971 0
    endloop
  endfacet
  facet normal -0.309017 -0.951056 0
    outer loop
      vertex -39.83 -21.7971 2
      vertex -39.83 -21.7971 0
      vertex -38.0504 -22.3753 0
    endloop
  endfacet
  facet normal -0.309017 -0.951056 0
    outer loop
      vertex -38.0504 -22.3753 2
      vertex -39.83 -21.7971 2
      vertex -38.0504 -22.3753 0
    endloop
  endfacet
  facet normal 0 -1 0
    outer loop
      vertex -38.0504 -22.3753 2
      vertex -38.0504 -22.3753 0
      vertex 48.9496 -22.3753 0
    endloop
  endfacet
  facet normal 0 -1 0
    outer loop
      vertex 48.9496 -22.3753 2
      vertex -38.0504 -22.3753 2
      vertex 48.9496 -22.3753 0
    endloop
  endfacet
  facet normal 0.104529 -0.994522 0
    outer loop
      vertex 48.9496 -22.3753 2
      vertex 48.9496 -22.3753 0
      vertex 50.8106 -22.1798 0
    endloop
  endfacet
  facet normal 0.104529 -0.994522 0
    outer loop
      vertex 50.8106 -22.1798 2
      vertex 48.9496 -22.3753 2
      vertex 50.8106 -22.1798 0
    endloop
  endfacet
  facet normal 0.5 -0.866026 0
    outer loop
      vertex 50.8106 -22.1798 2
      vertex 50.8106 -22.1798 0
      vertex 52.4311 -21.2442 0
    endloop
  endfacet
  facet normal 0.5 -0.866026 0
    outer loop
      vertex 52.4311 -21.2442 2
      vertex 50.8106 -22.1798 2
      vertex 52.4311 -21.2442 0
    endloop
  endfacet
  facet normal 0.809017 -0.587785 0
    outer loop
      vertex 52.4311 -21.2442 2
      vertex 52.4311 -21.2442 0
      vertex 53.531 -19.7303 0
    endloop
  endfacet
  facet normal 0.809017 -0.587785 0
    outer loop
      vertex 53.531 -19.7303 2
      vertex 52.4311 -21.2442 2
      vertex 53.531 -19.7303 0
    endloop
  endfacet
  facet normal 0.978148 -0.207911 0
    outer loop
      vertex 53.531 -19.7303 2
      vertex 53.531 -19.7303 0
      vertex 53.92 -17.9 0
    endloop
  endfacet
  facet normal 0.978148 -0.207911 0
    outer loop
      vertex 53.92 -17.9 2
      vertex 53.531 -19.7303 2
      vertex 53.92 -17.9 0
    endloop
  endfacet
  facet normal 1 0 -0
    outer loop
      vertex 53.92 -17.9 2
      vertex 53.92 -17.9 0
      vertex 53.92 41.1 0
    endloop
  endfacet
  facet normal 1 0 0
    outer loop
      vertex 53.92 41.1 2
      vertex 53.92 -17.9 2
      vertex 53.92 41.1 0
    endloop
  endfacet
  facet normal 0.978148 0.207911 0
    outer loop
      vertex 53.92 41.1 0
      vertex 53.531 42.9303 0
      vertex 53.531 42.9303 2
    endloop
  endfacet
  facet normal 0.978148 0.207911 -0
    outer loop
      vertex 53.92 41.1 2
      vertex 53.92 41.1 0
      vertex 53.531 42.9303 2
    endloop
  endfacet
  facet normal 0.809017 0.587785 0
    outer loop
      vertex 53.531 42.9303 0
      vertex 52.4311 44.4442 0
      vertex 52.4311 44.4442 2
    endloop
  endfacet
  facet normal 0.809017 0.587785 -0
    outer loop
      vertex 53.531 42.9303 2
      vertex 53.531 42.9303 0
      vertex 52.4311 44.4442 2
    endloop
  endfacet
  facet normal 0.5 0.866026 0
    outer loop
      vertex 50.8106 45.3798 0
      vertex 50.8106 45.3798 2
      vertex 52.4311 44.4442 0
    endloop
  endfacet
  facet normal 0.5 0.866026 0
    outer loop
      vertex 52.4311 44.4442 0
      vertex 50.8106 45.3798 2
      vertex 52.4311 44.4442 2
    endloop
  endfacet
  facet normal 0.104529 0.994522 0
    outer loop
      vertex 48.9496 45.5753 0
      vertex 48.9496 45.5753 2
      vertex 50.8106 45.3798 0
    endloop
  endfacet
  facet normal 0.104529 0.994522 0
    outer loop
      vertex 50.8106 45.3798 0
      vertex 48.9496 45.5753 2
      vertex 50.8106 45.3798 2
    endloop
  endfacet
  facet normal 0 1 0
    outer loop
      vertex -38.0504 45.5753 0
      vertex -38.0504 45.5753 2
      vertex 48.9496 45.5753 0
    endloop
  endfacet
  facet normal 0 1 0
    outer loop
      vertex 48.9496 45.5753 0
      vertex -38.0504 45.5753 2
      vertex 48.9496 45.5753 2
    endloop
  endfacet
  facet normal -0.309017 0.951056 0
    outer loop
      vertex -39.83 44.9971 0
      vertex -39.83 44.9971 2
      vertex -38.0504 45.5753 0
    endloop
  endfacet
  facet normal -0.309017 0.951056 0
    outer loop
      vertex -38.0504 45.5753 0
      vertex -39.83 44.9971 2
      vertex -38.0504 45.5753 2
    endloop
  endfacet
  facet normal -0.669131 0.743145 0
    outer loop
      vertex -41.2206 43.745 0
      vertex -41.2206 43.745 2
      vertex -39.83 44.9971 0
    endloop
  endfacet
  facet normal -0.669131 0.743145 0
    outer loop
      vertex -39.83 44.9971 0
      vertex -41.2206 43.745 2
      vertex -39.83 44.9971 2
    endloop
  endfacet
  facet normal 0.92388 0.382683 0
    outer loop
      vertex -40.08 -17.9 3
      vertex -39.3478 -19.6678 3
      vertex -39.3478 -19.6678 0
    endloop
  endfacet
  facet normal 0.92388 0.382683 0
    outer loop
      vertex -40.08 -17.9 0
      vertex -40.08 -17.9 3
      vertex -39.3478 -19.6678 0
    endloop
  endfacet
  facet normal 0.92388 -0.382683 0
    outer loop
      vertex -39.3478 -16.1322 0
      vertex -39.3478 -16.1322 3
      vertex -40.08 -17.9 3
    endloop
  endfacet
  facet normal 0.92388 -0.382683 0
    outer loop
      vertex -40.08 -17.9 0
      vertex -39.3478 -16.1322 0
      vertex -40.08 -17.9 3
    endloop
  endfacet
  facet normal 0.382683 -0.92388 0
    outer loop
      vertex -37.58 -15.4 0
      vertex -37.58 -15.4 3
      vertex -39.3478 -16.1322 3
    endloop
  endfacet
  facet normal 0.382683 -0.92388 0
    outer loop
      vertex -39.3478 -16.1322 0
      vertex -37.58 -15.4 0
      vertex -39.3478 -16.1322 3
    endloop
  endfacet
  facet normal -0.382683 -0.92388 -0
    outer loop
      vertex -35.8122 -16.1322 0
      vertex -35.8122 -16.1322 3
      vertex -37.58 -15.4 3
    endloop
  endfacet
  facet normal -0.382683 -0.92388 -0
    outer loop
      vertex -37.58 -15.4 0
      vertex -35.8122 -16.1322 0
      vertex -37.58 -15.4 3
    endloop
  endfacet
  facet normal -0.92388 -0.382683 0
    outer loop
      vertex -35.08 -17.9 3
      vertex -35.8122 -16.1322 3
      vertex -35.08 -17.9 0
    endloop
  endfacet
  facet normal -0.92388 -0.382683 0
    outer loop
      vertex -35.08 -17.9 0
      vertex -35.8122 -16.1322 3
      vertex -35.8122 -16.1322 0
    endloop
  endfacet
  facet normal -0.92388 0.382683 0
    outer loop
      vertex -35.08 -17.9 3
      vertex -35.08 -17.9 0
      vertex -35.8122 -19.6678 3
    endloop
  endfacet
  facet normal -0.92388 0.382683 0
    outer loop
      vertex -35.8122 -19.6678 3
      vertex -35.08 -17.9 0
      vertex -35.8122 -19.6678 0
    endloop
  endfacet
  facet normal -0.382683 0.92388 0
    outer loop
      vertex -35.8122 -19.6678 3
      vertex -35.8122 -19.6678 0
      vertex -37.58 -20.4 3
    endloop
  endfacet
  facet normal -0.382683 0.92388 0
    outer loop
      vertex -37.58 -20.4 3
      vertex -35.8122 -19.6678 0
      vertex -37.58 -20.4 0
    endloop
  endfacet
  facet normal 0.382683 0.92388 -0
    outer loop
      vertex -37.58 -20.4 3
      vertex -37.58 -20.4 0
      vertex -39.3478 -19.6678 3
    endloop
  endfacet
  facet normal 0.382683 0.92388 -0
    outer loop
      vertex -39.3478 -19.6678 3
      vertex -37.58 -20.4 0
      vertex -39.3478 -19.6678 0
    endloop
  endfacet
  facet normal 0.92388 0.382683 0
    outer loop
      vertex -40.08 41.1 2
      vertex -39.3478 39.3322 2
      vertex -39.3478 39.3322 0
    endloop
  endfacet
  facet normal 0.92388 0.382683 0
    outer loop
      vertex -40.08 41.1 0
      vertex -40.08 41.1 2
      vertex -39.3478 39.3322 0
    endloop
  endfacet
  facet normal 0.92388 -0.382683 0
    outer loop
      vertex -39.3478 42.8678 0
      vertex -39.3478 42.8678 2
      vertex -40.08 41.1 2
    endloop
  endfacet
  facet normal 0.92388 -0.382683 0
    outer loop
      vertex -40.08 41.1 0
      vertex -39.3478 42.8678 0
      vertex -40.08 41.1 2
    endloop
  endfacet
  facet normal 0.382683 -0.92388 0
    outer loop
      vertex -37.58 43.6 0
      vertex -37.58 43.6 2
      vertex -39.3478 42.8678 2
    endloop
  endfacet
  facet normal 0.382683 -0.92388 0
    outer loop
      vertex -39.3478 42.8678 0
      vertex -37.58 43.6 0
      vertex -39.3478 42.8678 2
    endloop
  endfacet
  facet normal -0.382683 -0.92388 -0
    outer loop
      vertex -35.8122 42.8678 0
      vertex -35.8122 42.8678 2
      vertex -37.58 43.6 2
    endloop
  endfacet
  facet normal -0.382683 -0.92388 -0
    outer loop
      vertex -37.58 43.6 0
      vertex -35.8122 42.8678 0
      vertex -37.58 43.6 2
    endloop
  endfacet
  facet normal -0.92388 -0.382683 0
    outer loop
      vertex -35.08 41.1 2
      vertex -35.8122 42.8678 2
      vertex -35.08 41.1 0
    endloop
  endfacet
  facet normal -0.92388 -0.382683 0
    outer loop
      vertex -35.08 41.1 0
      vertex -35.8122 42.8678 2
      vertex -35.8122 42.8678 0
    endloop
  endfacet
  facet normal -0.92388 0.382683 0
    outer loop
      vertex -35.08 41.1 2
      vertex -35.08 41.1 0
      vertex -35.8122 39.3322 2
    endloop
  endfacet
  facet normal -0.92388 0.382683 0
    outer loop
      vertex -35.8122 39.3322 2
      vertex -35.08 41.1 0
      vertex -35.8122 39.3322 0
    endloop
  endfacet
  facet normal -0.382683 0.92388 0
    outer loop
      vertex -35.8122 39.3322 2
      vertex -35.8122 39.3322 0
      vertex -37.58 38.6 2
    endloop
  endfacet
  facet normal -0.382683 0.92388 0
    outer loop
      vertex -37.58 38.6 2
      vertex -35.8122 39.3322 0
      vertex -37.58 38.6 0
    endloop
  endfacet
  facet normal 0.382683 0.92388 -0
    outer loop
      vertex -37.58 38.6 2
      vertex -37.58 38.6 0
      vertex -39.3478 39.3322 2
    endloop
  endfacet
  facet normal 0.382683 0.92388 -0
    outer loop
      vertex -39.3478 39.3322 2
      vertex -37.58 38.6 0
      vertex -39.3478 39.3322 0
    endloop
  endfacet
  facet normal 0.92388 -0.382683 0
    outer loop
      vertex -38.0778 32.1278 0
      vertex -38.0778 32.1278 3
      vertex -38.81 30.36 3
    endloop
  endfacet
  facet normal 0.92388 -0.382683 0
    outer loop
      vertex -38.81 30.36 0
      vertex -38.0778 32.1278 0
      vertex -38.81 30.36 3
    endloop
  endfacet
  facet normal 0.92388 0.382683 0
    outer loop
      vertex -38.81 30.36 3
      vertex -38.0778 28.5922 3
      vertex -38.0778 28.5922 0
    endloop
  endfacet
  facet normal 0.92388 0.382683 0
    outer loop
      vertex -38.81 30.36 0
      vertex -38.81 30.36 3
      vertex -38.0778 28.5922 0
    endloop
  endfacet
  facet normal 0.382683 -0.92388 0
    outer loop
      vertex -36.31 32.86 0
      vertex -36.31 32.86 3
      vertex -38.0778 32.1278 3
    endloop
  endfacet
  facet normal 0.382683 -0.92388 0
    outer loop
      vertex -38.0778 32.1278 0
      vertex -36.31 32.86 0
      vertex -38.0778 32.1278 3
    endloop
  endfacet
  facet normal -0.382683 -0.92388 -0
    outer loop
      vertex -34.5422 32.1278 0
      vertex -34.5422 32.1278 3
      vertex -36.31 32.86 3
    endloop
  endfacet
  facet normal -0.382683 -0.92388 -0
    outer loop
      vertex -36.31 32.86 0
      vertex -34.5422 32.1278 0
      vertex -36.31 32.86 3
    endloop
  endfacet
  facet normal -0.92388 -0.382683 0
    outer loop
      vertex -33.81 30.36 3
      vertex -34.5422 32.1278 3
      vertex -33.81 30.36 0
    endloop
  endfacet
  facet normal -0.92388 -0.382683 0
    outer loop
      vertex -33.81 30.36 0
      vertex -34.5422 32.1278 3
      vertex -34.5422 32.1278 0
    endloop
  endfacet
  facet normal -0.92388 0.382683 0
    outer loop
      vertex -33.81 30.36 3
      vertex -33.81 30.36 0
      vertex -34.5422 28.5922 3
    endloop
  endfacet
  facet normal -0.92388 0.382683 0
    outer loop
      vertex -34.5422 28.5922 3
      vertex -33.81 30.36 0
      vertex -34.5422 28.5922 0
    endloop
  endfacet
  facet normal -0.382683 0.92388 0
    outer loop
      vertex -34.5422 28.5922 3
      vertex -34.5422 28.5922 0
      vertex -36.31 27.86 3
    endloop
  endfacet
  facet normal -0.382683 0.92388 0
    outer loop
      vertex -36.31 27.86 3
      vertex -34.5422 28.5922 0
      vertex -36.31 27.86 0
    endloop
  endfacet
  facet normal 0.382683 0.92388 -0
    outer loop
      vertex -36.31 27.86 3
      vertex -36.31 27.86 0
      vertex -38.0778 28.5922 3
    endloop
  endfacet
  facet normal 0.382683 0.92388 -0
    outer loop
      vertex -38.0778 28.5922 3
      vertex -36.31 27.86 0
      vertex -38.0778 28.5922 0
    endloop
  endfacet
  facet normal 1 0 -0
    outer loop
      vertex -33.08 -13.4247 2
      vertex -33.08 -13.4247 0
      vertex -33.08 27.3172 0
    endloop
  endfacet
  facet normal 1 0 0
    outer loop
      vertex -33.08 27.3172 2
      vertex -33.08 -13.4247 2
      vertex -33.08 27.3172 0
    endloop
  endfacet
  facet normal 0.809017 -0.587785 0
    outer loop
      vertex -33.08 27.3172 2
      vertex -33.08 27.3172 0
      vertex -32.199 28.5297 0
    endloop
  endfacet
  facet normal 0.809017 -0.587785 0
    outer loop
      vertex -32.199 28.5297 2
      vertex -33.08 27.3172 2
      vertex -32.199 28.5297 0
    endloop
  endfacet
  facet normal 0.978148 -0.207911 0
    outer loop
      vertex -32.199 28.5297 2
      vertex -32.199 28.5297 0
      vertex -31.81 30.36 0
    endloop
  endfacet
  facet normal 0.978148 -0.207911 0
    outer loop
      vertex -31.81 30.36 2
      vertex -32.199 28.5297 2
      vertex -31.81 30.36 0
    endloop
  endfacet
  facet normal 0.993081 0.117431 0
    outer loop
      vertex -31.81 30.36 0
      vertex -32.5508 36.6247 0
      vertex -32.5508 36.6247 2
    endloop
  endfacet
  facet normal 0.993081 0.117431 -0
    outer loop
      vertex -31.81 30.36 2
      vertex -31.81 30.36 0
      vertex -32.5508 36.6247 2
    endloop
  endfacet
  facet normal 0 -1 0
    outer loop
      vertex -32.5508 36.6247 2
      vertex -32.5508 36.6247 0
      vertex 38.6126 36.6247 0
    endloop
  endfacet
  facet normal 0 -1 0
    outer loop
      vertex 38.6126 36.6247 2
      vertex -32.5508 36.6247 2
      vertex 38.6126 36.6247 0
    endloop
  endfacet
  facet normal -0.704806 0.7094 0
    outer loop
      vertex 34.9694 33.005 0
      vertex 34.9694 33.005 2
      vertex 38.6126 36.6247 0
    endloop
  endfacet
  facet normal -0.704806 0.7094 0
    outer loop
      vertex 38.6126 36.6247 0
      vertex 34.9694 33.005 2
      vertex 38.6126 36.6247 2
    endloop
  endfacet
  facet normal -0.913545 0.406737 0
    outer loop
      vertex 34.2083 31.2956 0
      vertex 34.2083 31.2956 2
      vertex 34.9694 33.005 0
    endloop
  endfacet
  facet normal -0.913545 0.406737 0
    outer loop
      vertex 34.9694 33.005 0
      vertex 34.2083 31.2956 2
      vertex 34.9694 33.005 2
    endloop
  endfacet
  facet normal -1 -0 -0
    outer loop
      vertex 34.2083 29.4244 0
      vertex 34.2083 29.4244 2
      vertex 34.2083 31.2956 0
    endloop
  endfacet
  facet normal -1 0 0
    outer loop
      vertex 34.2083 31.2956 0
      vertex 34.2083 29.4244 2
      vertex 34.2083 31.2956 2
    endloop
  endfacet
  facet normal -0.913545 -0.406737 -0
    outer loop
      vertex 34.2083 29.4244 0
      vertex 34.9694 27.715 0
      vertex 34.2083 29.4244 2
    endloop
  endfacet
  facet normal -0.913545 -0.406737 0
    outer loop
      vertex 34.2083 29.4244 2
      vertex 34.9694 27.715 0
      vertex 34.9694 27.715 2
    endloop
  endfacet
  facet normal -0.669131 -0.743145 0
    outer loop
      vertex 34.9694 27.715 2
      vertex 34.9694 27.715 0
      vertex 36.36 26.4629 0
    endloop
  endfacet
  facet normal -0.669131 -0.743145 0
    outer loop
      vertex 36.36 26.4629 2
      vertex 34.9694 27.715 2
      vertex 36.36 26.4629 0
    endloop
  endfacet
  facet normal -0.309017 -0.951056 0
    outer loop
      vertex 36.36 26.4629 2
      vertex 36.36 26.4629 0
      vertex 38.1396 25.8847 0
    endloop
  endfacet
  facet normal -0.309017 -0.951056 0
    outer loop
      vertex 38.1396 25.8847 2
      vertex 36.36 26.4629 2
      vertex 38.1396 25.8847 0
    endloop
  endfacet
  facet normal 0.104529 -0.994522 0
    outer loop
      vertex 38.1396 25.8847 2
      vertex 38.1396 25.8847 0
      vertex 40.0006 26.0802 0
    endloop
  endfacet
  facet normal 0.104529 -0.994522 0
    outer loop
      vertex 40.0006 26.0802 2
      vertex 38.1396 25.8847 2
      vertex 40.0006 26.0802 0
    endloop
  endfacet
  facet normal 0.5 -0.866026 0
    outer loop
      vertex 40.0006 26.0802 2
      vertex 40.0006 26.0802 0
      vertex 41.6211 27.0158 0
    endloop
  endfacet
  facet normal 0.5 -0.866026 0
    outer loop
      vertex 41.6211 27.0158 2
      vertex 40.0006 26.0802 2
      vertex 41.6211 27.0158 0
    endloop
  endfacet
  facet normal 0.704806 -0.7094 0
    outer loop
      vertex 41.6211 27.0158 2
      vertex 41.6211 27.0158 0
      vertex 45.0183 30.3911 0
    endloop
  endfacet
  facet normal 0.704806 -0.7094 0
    outer loop
      vertex 45.0183 30.3911 2
      vertex 41.6211 27.0158 2
      vertex 45.0183 30.3911 0
    endloop
  endfacet
  facet normal -1 -0 -0
    outer loop
      vertex 45.0183 -13.4247 0
      vertex 45.0183 -13.4247 2
      vertex 45.0183 30.3911 0
    endloop
  endfacet
  facet normal -1 0 0
    outer loop
      vertex 45.0183 30.3911 0
      vertex 45.0183 -13.4247 2
      vertex 45.0183 30.3911 2
    endloop
  endfacet
  facet normal 0 1 0
    outer loop
      vertex -33.08 -13.4247 0
      vertex -33.08 -13.4247 2
      vertex 45.0183 -13.4247 0
    endloop
  endfacet
  facet normal 0 1 0
    outer loop
      vertex 45.0183 -13.4247 0
      vertex -33.08 -13.4247 2
      vertex 45.0183 -13.4247 2
    endloop
  endfacet
  facet normal 0.92388 -0.382683 0
    outer loop
      vertex 36.8422 32.1278 0
      vertex 36.8422 32.1278 3
      vertex 36.11 30.36 3
    endloop
  endfacet
  facet normal 0.92388 -0.382683 0
    outer loop
      vertex 36.11 30.36 0
      vertex 36.8422 32.1278 0
      vertex 36.11 30.36 3
    endloop
  endfacet
  facet normal 0.92388 0.382683 0
    outer loop
      vertex 36.11 30.36 3
      vertex 36.8422 28.5922 3
      vertex 36.8422 28.5922 0
    endloop
  endfacet
  facet normal 0.92388 0.382683 0
    outer loop
      vertex 36.11 30.36 0
      vertex 36.11 30.36 3
      vertex 36.8422 28.5922 0
    endloop
  endfacet
  facet normal 0.382683 -0.92388 0
    outer loop
      vertex 38.61 32.86 0
      vertex 38.61 32.86 3
      vertex 36.8422 32.1278 3
    endloop
  endfacet
  facet normal 0.382683 -0.92388 0
    outer loop
      vertex 36.8422 32.1278 0
      vertex 38.61 32.86 0
      vertex 36.8422 32.1278 3
    endloop
  endfacet
  facet normal -0.382683 -0.92388 -0
    outer loop
      vertex 40.3778 32.1278 0
      vertex 40.3778 32.1278 3
      vertex 38.61 32.86 3
    endloop
  endfacet
  facet normal -0.382683 -0.92388 -0
    outer loop
      vertex 38.61 32.86 0
      vertex 40.3778 32.1278 0
      vertex 38.61 32.86 3
    endloop
  endfacet
  facet normal -0.92388 -0.382683 0
    outer loop
      vertex 41.11 30.36 3
      vertex 40.3778 32.1278 3
      vertex 41.11 30.36 0
    endloop
  endfacet
  facet normal -0.92388 -0.382683 0
    outer loop
      vertex 41.11 30.36 0
      vertex 40.3778 32.1278 3
      vertex 40.3778 32.1278 0
    endloop
  endfacet
  facet normal -0.92388 0.382683 0
    outer loop
      vertex 41.11 30.36 3
      vertex 41.11 30.36 0
      vertex 40.3778 28.5922 3
    endloop
  endfacet
  facet normal -0.92388 0.382683 0
    outer loop
      vertex 40.3778 28.5922 3
      vertex 41.11 30.36 0
      vertex 40.3778 28.5922 0
    endloop
  endfacet
  facet normal -0.382683 0.92388 0
    outer loop
      vertex 40.3778 28.5922 3
      vertex 40.3778 28.5922 0
      vertex 38.61 27.86 3
    endloop
  endfacet
  facet normal -0.382683 0.92388 0
    outer loop
      vertex 38.61 27.86 3
      vertex 40.3778 28.5922 0
      vertex 38.61 27.86 0
    endloop
  endfacet
  facet normal 0.382683 0.92388 -0
    outer loop
      vertex 38.61 27.86 3
      vertex 38.61 27.86 0
      vertex 36.8422 28.5922 3
    endloop
  endfacet
  facet normal 0.382683 0.92388 -0
    outer loop
      vertex 36.8422 28.5922 3
      vertex 38.61 27.86 0
      vertex 36.8422 28.5922 0
    endloop
  endfacet
  facet normal 0.92388 -0.382683 0
    outer loop
      vertex 42.8822 -16.1322 0
      vertex 42.8822 -16.1322 3
      vertex 42.15 -17.9 3
    endloop
  endfacet
  facet normal 0.92388 -0.382683 0
    outer loop
      vertex 42.15 -17.9 0
      vertex 42.8822 -16.1322 0
      vertex 42.15 -17.9 3
    endloop
  endfacet
  facet normal 0.92388 0.382683 0
    outer loop
      vertex 42.15 -17.9 3
      vertex 42.8822 -19.6678 3
      vertex 42.8822 -19.6678 0
    endloop
  endfacet
  facet normal 0.92388 0.382683 0
    outer loop
      vertex 42.15 -17.9 0
      vertex 42.15 -17.9 3
      vertex 42.8822 -19.6678 0
    endloop
  endfacet
  facet normal 0.382683 -0.92388 0
    outer loop
      vertex 44.65 -15.4 0
      vertex 44.65 -15.4 3
      vertex 42.8822 -16.1322 3
    endloop
  endfacet
  facet normal 0.382683 -0.92388 0
    outer loop
      vertex 42.8822 -16.1322 0
      vertex 44.65 -15.4 0
      vertex 42.8822 -16.1322 3
    endloop
  endfacet
  facet normal -0.382683 -0.92388 -0
    outer loop
      vertex 46.4178 -16.1322 0
      vertex 46.4178 -16.1322 3
      vertex 44.65 -15.4 3
    endloop
  endfacet
  facet normal -0.382683 -0.92388 -0
    outer loop
      vertex 44.65 -15.4 0
      vertex 46.4178 -16.1322 0
      vertex 44.65 -15.4 3
    endloop
  endfacet
  facet normal -0.92388 -0.382683 0
    outer loop
      vertex 47.15 -17.9 3
      vertex 46.4178 -16.1322 3
      vertex 47.15 -17.9 0
    endloop
  endfacet
  facet normal -0.92388 -0.382683 0
    outer loop
      vertex 47.15 -17.9 0
      vertex 46.4178 -16.1322 3
      vertex 46.4178 -16.1322 0
    endloop
  endfacet
  facet normal -0.92388 0.382683 0
    outer loop
      vertex 47.15 -17.9 3
      vertex 47.15 -17.9 0
      vertex 46.4178 -19.6678 3
    endloop
  endfacet
  facet normal -0.92388 0.382683 0
    outer loop
      vertex 46.4178 -19.6678 3
      vertex 47.15 -17.9 0
      vertex 46.4178 -19.6678 0
    endloop
  endfacet
  facet normal -0.382683 0.92388 0
    outer loop
      vertex 46.4178 -19.6678 3
      vertex 46.4178 -19.6678 0
      vertex 44.65 -20.4 3
    endloop
  endfacet
  facet normal -0.382683 0.92388 0
    outer loop
      vertex 44.65 -20.4 3
      vertex 46.4178 -19.6678 0
      vertex 44.65 -20.4 0
    endloop
  endfacet
  facet normal 0.382683 0.92388 -0
    outer loop
      vertex 44.65 -20.4 3
      vertex 44.65 -20.4 0
      vertex 42.8822 -19.6678 3
    endloop
  endfacet
  facet normal 0.382683 0.92388 -0
    outer loop
      vertex 42.8822 -19.6678 3
      vertex 44.65 -20.4 0
      vertex 42.8822 -19.6678 0
    endloop
  endfacet
  facet normal 0.92388 0.382683 0
    outer loop
      vertex 46.92 41.1 2
      vertex 47.6522 39.3322 2
      vertex 47.6522 39.3322 0
    endloop
  endfacet
  facet normal 0.92388 0.382683 0
    outer loop
      vertex 46.92 41.1 0
      vertex 46.92 41.1 2
      vertex 47.6522 39.3322 0
    endloop
  endfacet
  facet normal 0.92388 -0.382683 0
    outer loop
      vertex 47.6522 42.8678 0
      vertex 47.6522 42.8678 2
      vertex 46.92 41.1 2
    endloop
  endfacet
  facet normal 0.92388 -0.382683 0
    outer loop
      vertex 46.92 41.1 0
      vertex 47.6522 42.8678 0
      vertex 46.92 41.1 2
    endloop
  endfacet
  facet normal 0.382683 -0.92388 0
    outer loop
      vertex 49.42 43.6 0
      vertex 49.42 43.6 2
      vertex 47.6522 42.8678 2
    endloop
  endfacet
  facet normal 0.382683 -0.92388 0
    outer loop
      vertex 47.6522 42.8678 0
      vertex 49.42 43.6 0
      vertex 47.6522 42.8678 2
    endloop
  endfacet
  facet normal -0.382683 -0.92388 -0
    outer loop
      vertex 51.1878 42.8678 0
      vertex 51.1878 42.8678 2
      vertex 49.42 43.6 2
    endloop
  endfacet
  facet normal -0.382683 -0.92388 -0
    outer loop
      vertex 49.42 43.6 0
      vertex 51.1878 42.8678 0
      vertex 49.42 43.6 2
    endloop
  endfacet
  facet normal -0.92388 -0.382683 0
    outer loop
      vertex 51.92 41.1 2
      vertex 51.1878 42.8678 2
      vertex 51.92 41.1 0
    endloop
  endfacet
  facet normal -0.92388 -0.382683 0
    outer loop
      vertex 51.92 41.1 0
      vertex 51.1878 42.8678 2
      vertex 51.1878 42.8678 0
    endloop
  endfacet
  facet normal -0.92388 0.382683 0
    outer loop
      vertex 51.92 41.1 2
      vertex 51.92 41.1 0
      vertex 51.1878 39.3322 2
    endloop
  endfacet
  facet normal -0.92388 0.382683 0
    outer loop
      vertex 51.1878 39.3322 2
      vertex 51.92 41.1 0
      vertex 51.1878 39.3322 0
    endloop
  endfacet
  facet normal -0.382683 0.92388 0
    outer loop
      vertex 51.1878 39.3322 2
      vertex 51.1878 39.3322 0
      vertex 49.42 38.6 2
    endloop
  endfacet
  facet normal -0.382683 0.92388 0
    outer loop
      vertex 49.42 38.6 2
      vertex 51.1878 39.3322 0
      vertex 49.42 38.6 0
    endloop
  endfacet
  facet normal 0.382683 0.92388 -0
    outer loop
      vertex 49.42 38.6 2
      vertex 49.42 38.6 0
      vertex 47.6522 39.3322 2
    endloop
  endfacet
  facet normal 0.382683 0.92388 -0
    outer loop
      vertex 47.6522 39.3322 2
      vertex 49.42 38.6 0
      vertex 47.6522 39.3322 0
    endloop
  endfacet
  facet normal -1 -0 -0
    outer loop
      vertex -40.1642 -18.8406 2
      vertex -40.1642 -18.8406 3
      vertex -40.1642 -16.9594 2
    endloop
  endfacet
  facet normal -1 0 0
    outer loop
      vertex -40.1642 -16.9594 2
      vertex -40.1642 -18.8406 3
      vertex -40.1642 -16.9594 3
    endloop
  endfacet
  facet normal -0.766044 -0.642788 -0
    outer loop
      vertex -40.1642 -18.8406 2
      vertex -38.955 -20.2816 2
      vertex -40.1642 -18.8406 3
    endloop
  endfacet
  facet normal -0.766044 -0.642788 0
    outer loop
      vertex -40.1642 -18.8406 3
      vertex -38.955 -20.2816 2
      vertex -38.955 -20.2816 3
    endloop
  endfacet
  facet normal -0.173648 -0.984808 0
    outer loop
      vertex -38.955 -20.2816 3
      vertex -38.955 -20.2816 2
      vertex -37.1025 -20.6082 2
    endloop
  endfacet
  facet normal -0.173648 -0.984808 0
    outer loop
      vertex -37.1025 -20.6082 3
      vertex -38.955 -20.2816 3
      vertex -37.1025 -20.6082 2
    endloop
  endfacet
  facet normal 0.5 -0.866026 0
    outer loop
      vertex -37.1025 -20.6082 3
      vertex -37.1025 -20.6082 2
      vertex -35.4734 -19.6677 2
    endloop
  endfacet
  facet normal 0.5 -0.866026 0
    outer loop
      vertex -35.4734 -19.6677 3
      vertex -37.1025 -20.6082 3
      vertex -35.4734 -19.6677 2
    endloop
  endfacet
  facet normal 0.939693 -0.34202 0
    outer loop
      vertex -35.4734 -19.6677 3
      vertex -35.4734 -19.6677 2
      vertex -34.83 -17.9 2
    endloop
  endfacet
  facet normal 0.939693 -0.34202 0
    outer loop
      vertex -34.83 -17.9 3
      vertex -35.4734 -19.6677 3
      vertex -34.83 -17.9 2
    endloop
  endfacet
  facet normal 0.939693 0.34202 0
    outer loop
      vertex -34.83 -17.9 2
      vertex -35.4734 -16.1323 2
      vertex -35.4734 -16.1323 3
    endloop
  endfacet
  facet normal 0.939693 0.34202 -0
    outer loop
      vertex -34.83 -17.9 3
      vertex -34.83 -17.9 2
      vertex -35.4734 -16.1323 3
    endloop
  endfacet
  facet normal 0.5 0.866026 0
    outer loop
      vertex -37.1025 -15.1918 2
      vertex -37.1025 -15.1918 3
      vertex -35.4734 -16.1323 2
    endloop
  endfacet
  facet normal 0.5 0.866026 0
    outer loop
      vertex -35.4734 -16.1323 2
      vertex -37.1025 -15.1918 3
      vertex -35.4734 -16.1323 3
    endloop
  endfacet
  facet normal -0.173648 0.984808 0
    outer loop
      vertex -38.955 -15.5184 2
      vertex -38.955 -15.5184 3
      vertex -37.1025 -15.1918 2
    endloop
  endfacet
  facet normal -0.173648 0.984808 0
    outer loop
      vertex -37.1025 -15.1918 2
      vertex -38.955 -15.5184 3
      vertex -37.1025 -15.1918 3
    endloop
  endfacet
  facet normal -0.766044 0.642788 0
    outer loop
      vertex -40.1642 -16.9594 2
      vertex -40.1642 -16.9594 3
      vertex -38.955 -15.5184 2
    endloop
  endfacet
  facet normal -0.766044 0.642788 0
    outer loop
      vertex -38.955 -15.5184 2
      vertex -40.1642 -16.9594 3
      vertex -38.955 -15.5184 3
    endloop
  endfacet
  facet normal -1 -0 -0
    outer loop
      vertex -38.8942 29.4194 2
      vertex -38.8942 29.4194 3
      vertex -38.8942 31.3006 2
    endloop
  endfacet
  facet normal -1 0 0
    outer loop
      vertex -38.8942 31.3006 2
      vertex -38.8942 29.4194 3
      vertex -38.8942 31.3006 3
    endloop
  endfacet
  facet normal -0.766044 -0.642788 -0
    outer loop
      vertex -38.8942 29.4194 2
      vertex -37.685 27.9784 2
      vertex -38.8942 29.4194 3
    endloop
  endfacet
  facet normal -0.766044 -0.642788 0
    outer loop
      vertex -38.8942 29.4194 3
      vertex -37.685 27.9784 2
      vertex -37.685 27.9784 3
    endloop
  endfacet
  facet normal -0.173648 -0.984808 0
    outer loop
      vertex -37.685 27.9784 3
      vertex -37.685 27.9784 2
      vertex -35.8325 27.6518 2
    endloop
  endfacet
  facet normal -0.173648 -0.984808 0
    outer loop
      vertex -35.8325 27.6518 3
      vertex -37.685 27.9784 3
      vertex -35.8325 27.6518 2
    endloop
  endfacet
  facet normal 0.5 -0.866026 0
    outer loop
      vertex -35.8325 27.6518 3
      vertex -35.8325 27.6518 2
      vertex -34.2034 28.5923 2
    endloop
  endfacet
  facet normal 0.5 -0.866026 0
    outer loop
      vertex -34.2034 28.5923 3
      vertex -35.8325 27.6518 3
      vertex -34.2034 28.5923 2
    endloop
  endfacet
  facet normal 0.939693 -0.34202 0
    outer loop
      vertex -34.2034 28.5923 3
      vertex -34.2034 28.5923 2
      vertex -33.56 30.36 2
    endloop
  endfacet
  facet normal 0.939693 -0.34202 0
    outer loop
      vertex -33.56 30.36 3
      vertex -34.2034 28.5923 3
      vertex -33.56 30.36 2
    endloop
  endfacet
  facet normal 0.939693 0.34202 0
    outer loop
      vertex -33.56 30.36 2
      vertex -34.2034 32.1277 2
      vertex -34.2034 32.1277 3
    endloop
  endfacet
  facet normal 0.939693 0.34202 -0
    outer loop
      vertex -33.56 30.36 3
      vertex -33.56 30.36 2
      vertex -34.2034 32.1277 3
    endloop
  endfacet
  facet normal 0.5 0.866026 0
    outer loop
      vertex -35.8325 33.0682 2
      vertex -35.8325 33.0682 3
      vertex -34.2034 32.1277 2
    endloop
  endfacet
  facet normal 0.5 0.866026 0
    outer loop
      vertex -34.2034 32.1277 2
      vertex -35.8325 33.0682 3
      vertex -34.2034 32.1277 3
    endloop
  endfacet
  facet normal -0.173648 0.984808 0
    outer loop
      vertex -37.685 32.7416 2
      vertex -37.685 32.7416 3
      vertex -35.8325 33.0682 2
    endloop
  endfacet
  facet normal -0.173648 0.984808 0
    outer loop
      vertex -35.8325 33.0682 2
      vertex -37.685 32.7416 3
      vertex -35.8325 33.0682 3
    endloop
  endfacet
  facet normal -0.766044 0.642788 0
    outer loop
      vertex -38.8942 31.3006 2
      vertex -38.8942 31.3006 3
      vertex -37.685 32.7416 2
    endloop
  endfacet
  facet normal -0.766044 0.642788 0
    outer loop
      vertex -37.685 32.7416 2
      vertex -38.8942 31.3006 3
      vertex -37.685 32.7416 3
    endloop
  endfacet
  facet normal -1 -0 -0
    outer loop
      vertex 36.0258 29.4194 2
      vertex 36.0258 29.4194 3
      vertex 36.0258 31.3006 2
    endloop
  endfacet
  facet normal -1 0 0
    outer loop
      vertex 36.0258 31.3006 2
      vertex 36.0258 29.4194 3
      vertex 36.0258 31.3006 3
    endloop
  endfacet
  facet normal -0.766044 -0.642788 -0
    outer loop
      vertex 36.0258 29.4194 2
      vertex 37.235 27.9784 2
      vertex 36.0258 29.4194 3
    endloop
  endfacet
  facet normal -0.766044 -0.642788 0
    outer loop
      vertex 36.0258 29.4194 3
      vertex 37.235 27.9784 2
      vertex 37.235 27.9784 3
    endloop
  endfacet
  facet normal -0.173648 -0.984808 0
    outer loop
      vertex 37.235 27.9784 3
      vertex 37.235 27.9784 2
      vertex 39.0875 27.6518 2
    endloop
  endfacet
  facet normal -0.173648 -0.984808 0
    outer loop
      vertex 39.0875 27.6518 3
      vertex 37.235 27.9784 3
      vertex 39.0875 27.6518 2
    endloop
  endfacet
  facet normal 0.5 -0.866026 0
    outer loop
      vertex 39.0875 27.6518 3
      vertex 39.0875 27.6518 2
      vertex 40.7166 28.5923 2
    endloop
  endfacet
  facet normal 0.5 -0.866026 0
    outer loop
      vertex 40.7166 28.5923 3
      vertex 39.0875 27.6518 3
      vertex 40.7166 28.5923 2
    endloop
  endfacet
  facet normal 0.939693 -0.34202 0
    outer loop
      vertex 40.7166 28.5923 3
      vertex 40.7166 28.5923 2
      vertex 41.36 30.36 2
    endloop
  endfacet
  facet normal 0.939693 -0.34202 0
    outer loop
      vertex 41.36 30.36 3
      vertex 40.7166 28.5923 3
      vertex 41.36 30.36 2
    endloop
  endfacet
  facet normal 0.939693 0.34202 0
    outer loop
      vertex 41.36 30.36 2
      vertex 40.7166 32.1277 2
      vertex 40.7166 32.1277 3
    endloop
  endfacet
  facet normal 0.939693 0.34202 -0
    outer loop
      vertex 41.36 30.36 3
      vertex 41.36 30.36 2
      vertex 40.7166 32.1277 3
    endloop
  endfacet
  facet normal 0.5 0.866026 0
    outer loop
      vertex 39.0875 33.0682 2
      vertex 39.0875 33.0682 3
      vertex 40.7166 32.1277 2
    endloop
  endfacet
  facet normal 0.5 0.866026 0
    outer loop
      vertex 40.7166 32.1277 2
      vertex 39.0875 33.0682 3
      vertex 40.7166 32.1277 3
    endloop
  endfacet
  facet normal -0.173648 0.984808 0
    outer loop
      vertex 37.235 32.7416 2
      vertex 37.235 32.7416 3
      vertex 39.0875 33.0682 2
    endloop
  endfacet
  facet normal -0.173648 0.984808 0
    outer loop
      vertex 39.0875 33.0682 2
      vertex 37.235 32.7416 3
      vertex 39.0875 33.0682 3
    endloop
  endfacet
  facet normal -0.766044 0.642788 0
    outer loop
      vertex 36.0258 31.3006 2
      vertex 36.0258 31.3006 3
      vertex 37.235 32.7416 2
    endloop
  endfacet
  facet normal -0.766044 0.642788 0
    outer loop
      vertex 37.235 32.7416 2
      vertex 36.0258 31.3006 3
      vertex 37.235 32.7416 3
    endloop
  endfacet
  facet normal -1 -0 -0
    outer loop
      vertex 42.0658 -18.8406 2
      vertex 42.0658 -18.8406 3
      vertex 42.0658 -16.9594 2
    endloop
  endfacet
  facet normal -1 0 0
    outer loop
      vertex 42.0658 -16.9594 2
      vertex 42.0658 -18.8406 3
      vertex 42.0658 -16.9594 3
    endloop
  endfacet
  facet normal -0.766044 -0.642788 -0
    outer loop
      vertex 42.0658 -18.8406 2
      vertex 43.275 -20.2816 2
      vertex 42.0658 -18.8406 3
    endloop
  endfacet
  facet normal -0.766044 -0.642788 0
    outer loop
      vertex 42.0658 -18.8406 3
      vertex 43.275 -20.2816 2
      vertex 43.275 -20.2816 3
    endloop
  endfacet
  facet normal -0.173648 -0.984808 0
    outer loop
      vertex 43.275 -20.2816 3
      vertex 43.275 -20.2816 2
      vertex 45.1275 -20.6082 2
    endloop
  endfacet
  facet normal -0.173648 -0.984808 0
    outer loop
      vertex 45.1275 -20.6082 3
      vertex 43.275 -20.2816 3
      vertex 45.1275 -20.6082 2
    endloop
  endfacet
  facet normal 0.5 -0.866026 0
    outer loop
      vertex 45.1275 -20.6082 3
      vertex 45.1275 -20.6082 2
      vertex 46.7566 -19.6677 2
    endloop
  endfacet
  facet normal 0.5 -0.866026 0
    outer loop
      vertex 46.7566 -19.6677 3
      vertex 45.1275 -20.6082 3
      vertex 46.7566 -19.6677 2
    endloop
  endfacet
  facet normal 0.939693 -0.34202 0
    outer loop
      vertex 46.7566 -19.6677 3
      vertex 46.7566 -19.6677 2
      vertex 47.4 -17.9 2
    endloop
  endfacet
  facet normal 0.939693 -0.34202 0
    outer loop
      vertex 47.4 -17.9 3
      vertex 46.7566 -19.6677 3
      vertex 47.4 -17.9 2
    endloop
  endfacet
  facet normal 0.939693 0.34202 0
    outer loop
      vertex 47.4 -17.9 2
      vertex 46.7566 -16.1323 2
      vertex 46.7566 -16.1323 3
    endloop
  endfacet
  facet normal 0.939693 0.34202 -0
    outer loop
      vertex 47.4 -17.9 3
      vertex 47.4 -17.9 2
      vertex 46.7566 -16.1323 3
    endloop
  endfacet
  facet normal 0.5 0.866026 0
    outer loop
      vertex 45.1275 -15.1918 2
      vertex 45.1275 -15.1918 3
      vertex 46.7566 -16.1323 2
    endloop
  endfacet
  facet normal 0.5 0.866026 0
    outer loop
      vertex 46.7566 -16.1323 2
      vertex 45.1275 -15.1918 3
      vertex 46.7566 -16.1323 3
    endloop
  endfacet
  facet normal -0.173648 0.984808 0
    outer loop
      vertex 43.275 -15.5184 2
      vertex 43.275 -15.5184 3
      vertex 45.1275 -15.1918 2
    endloop
  endfacet
  facet normal -0.173648 0.984808 0
    outer loop
      vertex 45.1275 -15.1918 2
      vertex 43.275 -15.5184 3
      vertex 45.1275 -15.1918 3
    endloop
  endfacet
  facet normal -0.766044 0.642788 0
    outer loop
      vertex 42.0658 -16.9594 2
      vertex 42.0658 -16.9594 3
      vertex 43.275 -15.5184 2
    endloop
  endfacet
  facet normal -0.766044 0.642788 0
    outer loop
      vertex 43.275 -15.5184 2
      vertex 42.0658 -16.9594 3
      vertex 43.275 -15.5184 3
    endloop
  endfacet
  facet normal -0 -0 1
    outer loop
      vertex -39.3478 -19.6678 3
      vertex -40.1642 -18.8406 3
      vertex -38.955 -20.2816 3
    endloop
  endfacet
  facet normal 0 0 1
    outer loop
      vertex -35.8122 -16.1322 3
      vertex -34.83 -17.9 3
      vertex -35.4734 -16.1323 3
    endloop
  endfacet
  facet normal 0 0 1
    outer loop
      vertex -37.58 -15.4 3
      vertex -35.8122 -16.1322 3
      vertex -37.1025 -15.1918 3
    endloop
  endfacet
  facet normal 0 -0 1
    outer loop
      vertex -40.08 -17.9 3
      vertex -40.1642 -18.8406 3
      vertex -39.3478 -19.6678 3
    endloop
  endfacet
  facet normal 0 -0 1
    outer loop
      vertex -40.1642 -16.9594 3
      vertex -40.1642 -18.8406 3
      vertex -40.08 -17.9 3
    endloop
  endfacet
  facet normal 0 -0 1
    outer loop
      vertex -38.955 -15.5184 3
      vertex -39.3478 -16.1322 3
      vertex -37.1025 -15.1918 3
    endloop
  endfacet
  facet normal 0 0 1
    outer loop
      vertex -38.955 -15.5184 3
      vertex -40.1642 -16.9594 3
      vertex -39.3478 -16.1322 3
    endloop
  endfacet
  facet normal 0 0 1
    outer loop
      vertex -39.3478 -16.1322 3
      vertex -37.58 -15.4 3
      vertex -37.1025 -15.1918 3
    endloop
  endfacet
  facet normal 0 0 1
    outer loop
      vertex -37.1025 -15.1918 3
      vertex -35.8122 -16.1322 3
      vertex -35.4734 -16.1323 3
    endloop
  endfacet
  facet normal 0 0 1
    outer loop
      vertex -35.8122 -16.1322 3
      vertex -35.08 -17.9 3
      vertex -34.83 -17.9 3
    endloop
  endfacet
  facet normal 0 0 1
    outer loop
      vertex -34.83 -17.9 3
      vertex -35.08 -17.9 3
      vertex -35.4734 -19.6677 3
    endloop
  endfacet
  facet normal 0 0 1
    outer loop
      vertex -35.4734 -19.6677 3
      vertex -35.8122 -19.6678 3
      vertex -37.1025 -20.6082 3
    endloop
  endfacet
  facet normal 0 0 1
    outer loop
      vertex -37.1025 -20.6082 3
      vertex -37.58 -20.4 3
      vertex -38.955 -20.2816 3
    endloop
  endfacet
  facet normal 0 0 1
    outer loop
      vertex -37.58 -20.4 3
      vertex -39.3478 -19.6678 3
      vertex -38.955 -20.2816 3
    endloop
  endfacet
  facet normal 0 0 1
    outer loop
      vertex -35.08 -17.9 3
      vertex -35.8122 -19.6678 3
      vertex -35.4734 -19.6677 3
    endloop
  endfacet
  facet normal 0 0 1
    outer loop
      vertex -35.8122 -19.6678 3
      vertex -37.58 -20.4 3
      vertex -37.1025 -20.6082 3
    endloop
  endfacet
  facet normal 0 0 1
    outer loop
      vertex -40.08 -17.9 3
      vertex -39.3478 -16.1322 3
      vertex -40.1642 -16.9594 3
    endloop
  endfacet
  facet normal -0 -0 1
    outer loop
      vertex -38.0778 28.5922 3
      vertex -38.8942 29.4194 3
      vertex -37.685 27.9784 3
    endloop
  endfacet
  facet normal 0 0 1
    outer loop
      vertex -34.5422 32.1278 3
      vertex -33.56 30.36 3
      vertex -34.2034 32.1277 3
    endloop
  endfacet
  facet normal 0 0 1
    outer loop
      vertex -36.31 32.86 3
      vertex -34.5422 32.1278 3
      vertex -35.8325 33.0682 3
    endloop
  endfacet
  facet normal 0 -0 1
    outer loop
      vertex -38.81 30.36 3
      vertex -38.8942 29.4194 3
      vertex -38.0778 28.5922 3
    endloop
  endfacet
  facet normal 0 -0 1
    outer loop
      vertex -38.8942 31.3006 3
      vertex -38.8942 29.4194 3
      vertex -38.81 30.36 3
    endloop
  endfacet
  facet normal 0 -0 1
    outer loop
      vertex -37.685 32.7416 3
      vertex -38.0778 32.1278 3
      vertex -35.8325 33.0682 3
    endloop
  endfacet
  facet normal 0 0 1
    outer loop
      vertex -37.685 32.7416 3
      vertex -38.8942 31.3006 3
      vertex -38.0778 32.1278 3
    endloop
  endfacet
  facet normal 0 0 1
    outer loop
      vertex -38.0778 32.1278 3
      vertex -36.31 32.86 3
      vertex -35.8325 33.0682 3
    endloop
  endfacet
  facet normal 0 0 1
    outer loop
      vertex -35.8325 33.0682 3
      vertex -34.5422 32.1278 3
      vertex -34.2034 32.1277 3
    endloop
  endfacet
  facet normal 0 0 1
    outer loop
      vertex -34.5422 32.1278 3
      vertex -33.81 30.36 3
      vertex -33.56 30.36 3
    endloop
  endfacet
  facet normal 0 0 1
    outer loop
      vertex -33.56 30.36 3
      vertex -33.81 30.36 3
      vertex -34.2034 28.5923 3
    endloop
  endfacet
  facet normal 0 0 1
    outer loop
      vertex -34.2034 28.5923 3
      vertex -34.5422 28.5922 3
      vertex -35.8325 27.6518 3
    endloop
  endfacet
  facet normal 0 0 1
    outer loop
      vertex -35.8325 27.6518 3
      vertex -36.31 27.86 3
      vertex -37.685 27.9784 3
    endloop
  endfacet
  facet normal 0 0 1
    outer loop
      vertex -36.31 27.86 3
      vertex -38.0778 28.5922 3
      vertex -37.685 27.9784 3
    endloop
  endfacet
  facet normal 0 0 1
    outer loop
      vertex -33.81 30.36 3
      vertex -34.5422 28.5922 3
      vertex -34.2034 28.5923 3
    endloop
  endfacet
  facet normal 0 0 1
    outer loop
      vertex -34.5422 28.5922 3
      vertex -36.31 27.86 3
      vertex -35.8325 27.6518 3
    endloop
  endfacet
  facet normal 0 0 1
    outer loop
      vertex -38.81 30.36 3
      vertex -38.0778 32.1278 3
      vertex -38.8942 31.3006 3
    endloop
  endfacet
  facet normal -0 -0 1
    outer loop
      vertex 36.8422 28.5922 3
      vertex 36.0258 29.4194 3
      vertex 37.235 27.9784 3
    endloop
  endfacet
  facet normal 0 0 1
    outer loop
      vertex 40.3778 32.1278 3
      vertex 41.36 30.36 3
      vertex 40.7166 32.1277 3
    endloop
  endfacet
  facet normal 0 0 1
    outer loop
      vertex 38.61 32.86 3
      vertex 40.3778 32.1278 3
      vertex 39.0875 33.0682 3
    endloop
  endfacet
  facet normal 0 -0 1
    outer loop
      vertex 36.11 30.36 3
      vertex 36.0258 29.4194 3
      vertex 36.8422 28.5922 3
    endloop
  endfacet
  facet normal 0 -0 1
    outer loop
      vertex 36.0258 31.3006 3
      vertex 36.0258 29.4194 3
      vertex 36.11 30.36 3
    endloop
  endfacet
  facet normal 0 -0 1
    outer loop
      vertex 37.235 32.7416 3
      vertex 36.8422 32.1278 3
      vertex 39.0875 33.0682 3
    endloop
  endfacet
  facet normal 0 0 1
    outer loop
      vertex 37.235 32.7416 3
      vertex 36.0258 31.3006 3
      vertex 36.8422 32.1278 3
    endloop
  endfacet
  facet normal 0 0 1
    outer loop
      vertex 36.8422 32.1278 3
      vertex 38.61 32.86 3
      vertex 39.0875 33.0682 3
    endloop
  endfacet
  facet normal 0 0 1
    outer loop
      vertex 39.0875 33.0682 3
      vertex 40.3778 32.1278 3
      vertex 40.7166 32.1277 3
    endloop
  endfacet
  facet normal 0 0 1
    outer loop
      vertex 40.3778 32.1278 3
      vertex 41.11 30.36 3
      vertex 41.36 30.36 3
    endloop
  endfacet
  facet normal 0 0 1
    outer loop
      vertex 41.36 30.36 3
      vertex 41.11 30.36 3
      vertex 40.7166 28.5923 3
    endloop
  endfacet
  facet normal 0 0 1
    outer loop
      vertex 40.7166 28.5923 3
      vertex 40.3778 28.5922 3
      vertex 39.0875 27.6518 3
    endloop
  endfacet
  facet normal 0 0 1
    outer loop
      vertex 39.0875 27.6518 3
      vertex 38.61 27.86 3
      vertex 37.235 27.9784 3
    endloop
  endfacet
  facet normal 0 0 1
    outer loop
      vertex 38.61 27.86 3
      vertex 36.8422 28.5922 3
      vertex 37.235 27.9784 3
    endloop
  endfacet
  facet normal 0 0 1
    outer loop
      vertex 41.11 30.36 3
      vertex 40.3778 28.5922 3
      vertex 40.7166 28.5923 3
    endloop
  endfacet
  facet normal 0 0 1
    outer loop
      vertex 40.3778 28.5922 3
      vertex 38.61 27.86 3
      vertex 39.0875 27.6518 3
    endloop
  endfacet
  facet normal 0 0 1
    outer loop
      vertex 36.11 30.36 3
      vertex 36.8422 32.1278 3
      vertex 36.0258 31.3006 3
    endloop
  endfacet
  facet normal -0 -0 1
    outer loop
      vertex 42.8822 -19.6678 3
      vertex 42.0658 -18.8406 3
      vertex 43.275 -20.2816 3
    endloop
  endfacet
  facet normal 0 0 1
    outer loop
      vertex 46.4178 -16.1322 3
      vertex 47.4 -17.9 3
      vertex 46.7566 -16.1323 3
    endloop
  endfacet
  facet normal 0 0 1
    outer loop
      vertex 44.65 -15.4 3
      vertex 46.4178 -16.1322 3
      vertex 45.1275 -15.1918 3
    endloop
  endfacet
  facet normal 0 -0 1
    outer loop
      vertex 42.15 -17.9 3
      vertex 42.0658 -18.8406 3
      vertex 42.8822 -19.6678 3
    endloop
  endfacet
  facet normal 0 -0 1
    outer loop
      vertex 42.0658 -16.9594 3
      vertex 42.0658 -18.8406 3
      vertex 42.15 -17.9 3
    endloop
  endfacet
  facet normal 0 -0 1
    outer loop
      vertex 43.275 -15.5184 3
      vertex 42.8822 -16.1322 3
      vertex 45.1275 -15.1918 3
    endloop
  endfacet
  facet normal 0 0 1
    outer loop
      vertex 43.275 -15.5184 3
      vertex 42.0658 -16.9594 3
      vertex 42.8822 -16.1322 3
    endloop
  endfacet
  facet normal 0 0 1
    outer loop
      vertex 42.8822 -16.1322 3
      vertex 44.65 -15.4 3
      vertex 45.1275 -15.1918 3
    endloop
  endfacet
  facet normal 0 0 1
    outer loop
      vertex 45.1275 -15.1918 3
      vertex 46.4178 -16.1322 3
      vertex 46.7566 -16.1323 3
    endloop
  endfacet
  facet normal 0 0 1
    outer loop
      vertex 46.4178 -16.1322 3
      vertex 47.15 -17.9 3
      vertex 47.4 -17.9 3
    endloop
  endfacet
  facet normal 0 0 1
    outer loop
      vertex 47.4 -17.9 3
      vertex 47.15 -17.9 3
      vertex 46.7566 -19.6677 3
    endloop
  endfacet
  facet normal 0 0 1
    outer loop
      vertex 46.7566 -19.6677 3
      vertex 46.4178 -19.6678 3
      vertex 45.1275 -20.6082 3
    endloop
  endfacet
  facet normal 0 0 1
    outer loop
      vertex 45.1275 -20.6082 3
      vertex 44.65 -20.4 3
      vertex 43.275 -20.2816 3
    endloop
  endfacet
  facet normal 0 0 1
    outer loop
      vertex 44.65 -20.4 3
      vertex 42.8822 -19.6678 3
      vertex 43.275 -20.2816 3
    endloop
  endfacet
  facet normal 0 0 1
    outer loop
      vertex 47.15 -17.9 3
      vertex 46.4178 -19.6678 3
      vertex 46.7566 -19.6677 3
    endloop
  endfacet
  facet normal 0 0 1
    outer loop
      vertex 46.4178 -19.6678 3
      vertex 44.65 -20.4 3
      vertex 45.1275 -20.6082 3
    endloop
  endfacet
  facet normal 0 0 1
    outer loop
      vertex 42.15 -17.9 3
      vertex 42.8822 -16.1322 3
      vertex 42.0658 -16.9594 3
    endloop
  endfacet
endsolid OpenSCAD_Model
