  0
SECTION
  2
HEADER
  9
$MEASUREMENT
  70
  0
  9
$INSUNITS
  70
  1
  0
ENDSEC
  0
SECTION
  2
TABLES
  0
TABLE
  2
LTYPE
 70
     1
  0
LTYPE
  2
CONTINUOUS
 70
    64
  3
Ausgezogene Linie
 72
    65
 73
     0
 40
0.0
  0
ENDTAB
  0
TABLE
  2
LAYER
 70
     3
  0
LAYER
  2
Contour
 70
    64
 62
     7
  6
CONTINUOUS
  0
LAYER
  2
Engraving
 70
    64
 62
     7
  6
CONTINUOUS
  0
LAYER
  2
Reference_points
 70
    64
 62
     1
  6
CONTINUOUS
  0
ENDTAB
  0
TABLE
  2
STYLE
 70
     1
  0
STYLE
  2
TXT
 70
    64
 40
0.0
 41
1.0
 50
0.0
 71
     0
 42
3.500000
  3
TXT
  0
ENDTAB
  0
ENDSEC
  0
SECTION
  2
BLOCKS
  0
ENDSEC
  0
SECTION
  2
ENTITIES
  0
LINE
  8
Contour
 62
   7
 39
0.004
  6
CONTINUOUS
 10
5.00000
 20
18.00000
 30
 0
 11
5.00000
 21
0.00000
  0
LINE
  8
Contour
 62
   7
 39
0.004
  6
CONTINUOUS
 10
5.00000
 20
0.00000
 30
 0
 11
0.00000
 21
0.00000
  0
LINE
  8
Contour
 62
   7
 39
0.004
  6
CONTINUOUS
 10
0.00000
 20
0.00000
 30
 0
 11
0.00000
 21
18.00000
  0
LINE
  8
Contour
 62
   7
 39
0.004
  6
CONTINUOUS
 10
0.00000
 20
18.00000
 30
 0
 11
5.00000
 21
18.00000
  0
LINE
  8
Engraving
 62
   255
 39
0.016
  6
CONTINUOUS
 10
1.54045
 20
16.67712
 30
 0
 11
1.59651
 21
16.67712
  0
LINE
  8
Engraving
 62
   255
 39
0.016
  6
CONTINUOUS
 10
1.52924
 20
16.64909
 30
 0
 11
1.56848
 21
16.75000
  0
LINE
  8
Engraving
 62
   255
 39
0.016
  6
CONTINUOUS
 10
1.56848
 20
16.75000
 30
 0
 11
1.60772
 21
16.64909
  0
LINE
  8
Engraving
 62
   255
 39
0.016
  6
CONTINUOUS
 10
1.63460
 20
16.64909
 30
 0
 11
1.63460
 21
16.75000
  0
LINE
  8
Engraving
 62
   255
 39
0.016
  6
CONTINUOUS
 10
1.63460
 20
16.75000
 30
 0
 11
1.67159
 21
16.75000
  0
ARC
  8
Engraving
 62
   255
 39
0.016
  6
CONTINUOUS
 10
1.67159
 20
16.72477
 30
 0
 40
0.02523
 50
-90.00000
 51
90.00000
  0
LINE
  8
Engraving
 62
   255
 39
0.016
  6
CONTINUOUS
 10
1.67159
 20
16.69955
 30
 0
 11
1.63460
 21
16.69955
  0
LINE
  8
Engraving
 62
   255
 39
0.016
  6
CONTINUOUS
 10
1.63460
 20
16.69955
 30
 0
 11
1.67384
 21
16.69955
  0
LINE
  8
Engraving
 62
   255
 39
0.016
  6
CONTINUOUS
 10
1.67384
 20
16.69955
 30
 0
 11
1.69626
 21
16.64909
  0
LINE
  8
Engraving
 62
   255
 39
0.016
  6
CONTINUOUS
 10
1.72204
 20
16.75000
 30
 0
 11
1.75679
 21
16.75000
  0
ARC
  8
Engraving
 62
   255
 39
0.016
  6
CONTINUOUS
 10
1.75549
 20
16.71621
 30
 0
 40
0.03382
 50
0.27068
 51
87.78728
  0
LINE
  8
Engraving
 62
   255
 39
0.016
  6
CONTINUOUS
 10
1.78931
 20
16.71636
 30
 0
 11
1.78931
 21
16.68273
  0
ARC
  8
Engraving
 62
   255
 39
0.016
  6
CONTINUOUS
 10
1.75685
 20
16.68157
 30
 0
 40
0.03248
 50
-90.09907
 51
2.04111
  0
LINE
  8
Engraving
 62
   255
 39
0.016
  6
CONTINUOUS
 10
1.75679
 20
16.64909
 30
 0
 11
1.72204
 21
16.64909
  0
LINE
  8
Engraving
 62
   255
 39
0.016
  6
CONTINUOUS
 10
1.72204
 20
16.64909
 30
 0
 11
1.72204
 21
16.75000
  0
LINE
  8
Engraving
 62
   255
 39
0.016
  6
CONTINUOUS
 10
1.81621
 20
16.74996
 30
 0
 11
1.81621
 21
16.68045
  0
ARC
  8
Engraving
 62
   255
 39
0.016
  6
CONTINUOUS
 10
1.84985
 20
16.68045
 30
 0
 40
0.03364
 50
180.00000
 51
360.00000
  0
LINE
  8
Engraving
 62
   255
 39
0.016
  6
CONTINUOUS
 10
1.88348
 20
16.68045
 30
 0
 11
1.88348
 21
16.74996
  0
LINE
  8
Engraving
 62
   255
 39
0.016
  6
CONTINUOUS
 10
1.91038
 20
16.74996
 30
 0
 11
1.91038
 21
16.64906
  0
LINE
  8
Engraving
 62
   255
 39
0.016
  6
CONTINUOUS
 10
1.93727
 20
16.64906
 30
 0
 11
1.93727
 21
16.74996
  0
LINE
  8
Engraving
 62
   255
 39
0.016
  6
CONTINUOUS
 10
1.93727
 20
16.74996
 30
 0
 11
2.00454
 21
16.64906
  0
LINE
  8
Engraving
 62
   255
 39
0.016
  6
CONTINUOUS
 10
2.00454
 20
16.64906
 30
 0
 11
2.00454
 21
16.74996
  0
ARC
  8
Engraving
 62
   255
 39
0.016
  6
CONTINUOUS
 10
2.06732
 20
16.68269
 30
 0
 40
0.03588
 50
180.00000
 51
360.00000
  0
LINE
  8
Engraving
 62
   255
 39
0.016
  6
CONTINUOUS
 10
2.10320
 20
16.68269
 30
 0
 11
2.10320
 21
16.71633
  0
ARC
  8
Engraving
 62
   255
 39
0.016
  6
CONTINUOUS
 10
2.06732
 20
16.71633
 30
 0
 40
0.03588
 50
0.00000
 51
180.00000
  0
LINE
  8
Engraving
 62
   255
 39
0.016
  6
CONTINUOUS
 10
2.03145
 20
16.71633
 30
 0
 11
2.03145
 21
16.68269
  0
LINE
  8
Engraving
 62
   255
 39
0.016
  6
CONTINUOUS
 10
2.20184
 20
16.64906
 30
 0
 11
2.20184
 21
16.74996
  0
LINE
  8
Engraving
 62
   255
 39
0.016
  6
CONTINUOUS
 10
2.20184
 20
16.74996
 30
 0
 11
2.24108
 21
16.67708
  0
LINE
  8
Engraving
 62
   255
 39
0.016
  6
CONTINUOUS
 10
2.24108
 20
16.67708
 30
 0
 11
2.28032
 21
16.74996
  0
LINE
  8
Engraving
 62
   255
 39
0.016
  6
CONTINUOUS
 10
2.28032
 20
16.74996
 30
 0
 11
2.28032
 21
16.64906
  0
LINE
  8
Engraving
 62
   255
 39
0.016
  6
CONTINUOUS
 10
2.30719
 20
16.69951
 30
 0
 11
2.36325
 21
16.69951
  0
LINE
  8
Engraving
 62
   255
 39
0.016
  6
CONTINUOUS
 10
2.37446
 20
16.74996
 30
 0
 11
2.30719
 21
16.74996
  0
LINE
  8
Engraving
 62
   255
 39
0.016
  6
CONTINUOUS
 10
2.30719
 20
16.74996
 30
 0
 11
2.30719
 21
16.64906
  0
LINE
  8
Engraving
 62
   255
 39
0.016
  6
CONTINUOUS
 10
2.30719
 20
16.64906
 30
 0
 11
2.37446
 21
16.64906
  0
LINE
  8
Engraving
 62
   255
 39
0.016
  6
CONTINUOUS
 10
2.44846
 20
16.69951
 30
 0
 11
2.47312
 21
16.69951
  0
LINE
  8
Engraving
 62
   255
 39
0.016
  6
CONTINUOUS
 10
2.47312
 20
16.69951
 30
 0
 11
2.47312
 21
16.68269
  0
ARC
  8
Engraving
 62
   255
 39
0.016
  6
CONTINUOUS
 10
2.43724
 20
16.68269
 30
 0
 40
0.03588
 50
-180.00000
 51
0.00000
  0
LINE
  8
Engraving
 62
   255
 39
0.016
  6
CONTINUOUS
 10
2.40137
 20
16.68269
 30
 0
 11
2.40137
 21
16.71633
  0
ARC
  8
Engraving
 62
   255
 39
0.016
  6
CONTINUOUS
 10
2.43592
 20
16.71714
 30
 0
 40
0.03456
 50
31.86328
 51
181.35068
  0
LINE
  8
Engraving
 62
   255
 39
0.016
  6
CONTINUOUS
 10
2.51124
 20
16.67708
 30
 0
 11
2.56730
 21
16.67708
  0
LINE
  8
Engraving
 62
   255
 39
0.016
  6
CONTINUOUS
 10
2.50003
 20
16.64906
 30
 0
 11
2.53927
 21
16.74996
  0
LINE
  8
Engraving
 62
   255
 39
0.016
  6
CONTINUOUS
 10
2.53927
 20
16.74996
 30
 0
 11
2.57851
 21
16.64906
  0
LINE
  8
Engraving
 62
   255
 39
0.016
  6
CONTINUOUS
 10
1.85904
 20
13.32086
 30
 0
 11
1.91509
 21
13.32086
  0
LINE
  8
Engraving
 62
   255
 39
0.016
  6
CONTINUOUS
 10
1.84782
 20
13.29283
 30
 0
 11
1.88707
 21
13.39374
  0
LINE
  8
Engraving
 62
   255
 39
0.016
  6
CONTINUOUS
 10
1.88707
 20
13.39374
 30
 0
 11
1.92631
 21
13.29283
  0
LINE
  8
Engraving
 62
   255
 39
0.016
  6
CONTINUOUS
 10
1.95318
 20
13.29283
 30
 0
 11
1.95318
 21
13.39374
  0
LINE
  8
Engraving
 62
   255
 39
0.016
  6
CONTINUOUS
 10
1.95318
 20
13.39374
 30
 0
 11
1.99018
 21
13.39374
  0
ARC
  8
Engraving
 62
   255
 39
0.016
  6
CONTINUOUS
 10
1.99018
 20
13.36851
 30
 0
 40
0.02523
 50
-90.00000
 51
90.00000
  0
LINE
  8
Engraving
 62
   255
 39
0.016
  6
CONTINUOUS
 10
1.99018
 20
13.34329
 30
 0
 11
1.95318
 21
13.34329
  0
LINE
  8
Engraving
 62
   255
 39
0.016
  6
CONTINUOUS
 10
1.95318
 20
13.34329
 30
 0
 11
1.99242
 21
13.34329
  0
LINE
  8
Engraving
 62
   255
 39
0.016
  6
CONTINUOUS
 10
1.99242
 20
13.34329
 30
 0
 11
2.01484
 21
13.29283
  0
LINE
  8
Engraving
 62
   255
 39
0.016
  6
CONTINUOUS
 10
2.04062
 20
13.39374
 30
 0
 11
2.07538
 21
13.39374
  0
ARC
  8
Engraving
 62
   255
 39
0.016
  6
CONTINUOUS
 10
2.07407
 20
13.35995
 30
 0
 40
0.03382
 50
0.27068
 51
87.78728
  0
LINE
  8
Engraving
 62
   255
 39
0.016
  6
CONTINUOUS
 10
2.10789
 20
13.36010
 30
 0
 11
2.10789
 21
13.32647
  0
ARC
  8
Engraving
 62
   255
 39
0.016
  6
CONTINUOUS
 10
2.07543
 20
13.32531
 30
 0
 40
0.03248
 50
-90.09907
 51
2.04111
  0
LINE
  8
Engraving
 62
   255
 39
0.016
  6
CONTINUOUS
 10
2.07538
 20
13.29283
 30
 0
 11
2.04062
 21
13.29283
  0
LINE
  8
Engraving
 62
   255
 39
0.016
  6
CONTINUOUS
 10
2.04062
 20
13.29283
 30
 0
 11
2.04062
 21
13.39374
  0
LINE
  8
Engraving
 62
   255
 39
0.016
  6
CONTINUOUS
 10
2.13479
 20
13.39370
 30
 0
 11
2.13479
 21
13.32419
  0
ARC
  8
Engraving
 62
   255
 39
0.016
  6
CONTINUOUS
 10
2.16843
 20
13.32419
 30
 0
 40
0.03364
 50
180.00000
 51
360.00000
  0
LINE
  8
Engraving
 62
   255
 39
0.016
  6
CONTINUOUS
 10
2.20206
 20
13.32419
 30
 0
 11
2.20206
 21
13.39370
  0
LINE
  8
Engraving
 62
   255
 39
0.016
  6
CONTINUOUS
 10
2.22897
 20
13.39370
 30
 0
 11
2.22897
 21
13.29280
  0
LINE
  8
Engraving
 62
   255
 39
0.016
  6
CONTINUOUS
 10
2.25586
 20
13.29280
 30
 0
 11
2.25586
 21
13.39370
  0
LINE
  8
Engraving
 62
   255
 39
0.016
  6
CONTINUOUS
 10
2.25586
 20
13.39370
 30
 0
 11
2.32313
 21
13.29280
  0
LINE
  8
Engraving
 62
   255
 39
0.016
  6
CONTINUOUS
 10
2.32313
 20
13.29280
 30
 0
 11
2.32313
 21
13.39370
  0
ARC
  8
Engraving
 62
   255
 39
0.016
  6
CONTINUOUS
 10
2.38591
 20
13.32643
 30
 0
 40
0.03588
 50
180.00000
 51
360.00000
  0
LINE
  8
Engraving
 62
   255
 39
0.016
  6
CONTINUOUS
 10
2.42178
 20
13.32643
 30
 0
 11
2.42178
 21
13.36007
  0
ARC
  8
Engraving
 62
   255
 39
0.016
  6
CONTINUOUS
 10
2.38591
 20
13.36007
 30
 0
 40
0.03588
 50
0.00000
 51
180.00000
  0
LINE
  8
Engraving
 62
   255
 39
0.016
  6
CONTINUOUS
 10
2.35003
 20
13.36007
 30
 0
 11
2.35003
 21
13.32643
  0
LINE
  8
Engraving
 62
   255
 39
0.016
  6
CONTINUOUS
 10
2.52042
 20
13.39370
 30
 0
 11
2.52042
 21
13.32419
  0
ARC
  8
Engraving
 62
   255
 39
0.016
  6
CONTINUOUS
 10
2.55406
 20
13.32419
 30
 0
 40
0.03364
 50
180.00000
 51
360.00000
  0
LINE
  8
Engraving
 62
   255
 39
0.016
  6
CONTINUOUS
 10
2.58769
 20
13.32419
 30
 0
 11
2.58769
 21
13.39370
  0
LINE
  8
Engraving
 62
   255
 39
0.016
  6
CONTINUOUS
 10
2.61460
 20
13.29280
 30
 0
 11
2.61460
 21
13.39370
  0
LINE
  8
Engraving
 62
   255
 39
0.016
  6
CONTINUOUS
 10
2.61460
 20
13.39370
 30
 0
 11
2.68187
 21
13.29280
  0
LINE
  8
Engraving
 62
   255
 39
0.016
  6
CONTINUOUS
 10
2.68187
 20
13.29280
 30
 0
 11
2.68187
 21
13.39370
  0
ARC
  8
Engraving
 62
   255
 39
0.016
  6
CONTINUOUS
 10
2.74465
 20
13.32643
 30
 0
 40
0.03588
 50
180.00000
 51
360.00000
  0
LINE
  8
Engraving
 62
   255
 39
0.016
  6
CONTINUOUS
 10
2.78052
 20
13.32643
 30
 0
 11
2.78052
 21
13.36007
  0
ARC
  8
Engraving
 62
   255
 39
0.016
  6
CONTINUOUS
 10
2.74465
 20
13.36007
 30
 0
 40
0.03588
 50
0.00000
 51
180.00000
  0
LINE
  8
Engraving
 62
   255
 39
0.016
  6
CONTINUOUS
 10
2.70877
 20
13.36007
 30
 0
 11
2.70877
 21
13.32643
  0
ARC
  8
Engraving
 62
   255
 39
0.016
  6
CONTINUOUS
 10
1.91559
 20
6.89108
 30
 0
 40
0.03588
 50
180.00000
 51
360.00000
  0
LINE
  8
Engraving
 62
   255
 39
0.016
  6
CONTINUOUS
 10
1.95147
 20
6.89108
 30
 0
 11
1.95147
 21
6.92471
  0
ARC
  8
Engraving
 62
   255
 39
0.016
  6
CONTINUOUS
 10
1.91559
 20
6.92471
 30
 0
 40
0.03588
 50
0.00000
 51
180.00000
  0
LINE
  8
Engraving
 62
   255
 39
0.016
  6
CONTINUOUS
 10
1.87971
 20
6.92471
 30
 0
 11
1.87971
 21
6.89108
  0
LINE
  8
Engraving
 62
   255
 39
0.016
  6
CONTINUOUS
 10
1.97838
 20
6.85744
 30
 0
 11
1.97838
 21
6.95835
  0
LINE
  8
Engraving
 62
   255
 39
0.016
  6
CONTINUOUS
 10
1.97838
 20
6.95835
 30
 0
 11
2.01537
 21
6.95835
  0
ARC
  8
Engraving
 62
   255
 39
0.016
  6
CONTINUOUS
 10
2.01537
 20
6.93312
 30
 0
 40
0.02523
 50
-90.00000
 51
90.00000
  0
LINE
  8
Engraving
 62
   255
 39
0.016
  6
CONTINUOUS
 10
2.01537
 20
6.90789
 30
 0
 11
1.97838
 21
6.90789
  0
LINE
  8
Engraving
 62
   255
 39
0.016
  6
CONTINUOUS
 10
2.06582
 20
6.95835
 30
 0
 11
2.13309
 21
6.95835
  0
LINE
  8
Engraving
 62
   255
 39
0.016
  6
CONTINUOUS
 10
2.13309
 20
6.95835
 30
 0
 11
2.09945
 21
6.95835
  0
LINE
  8
Engraving
 62
   255
 39
0.016
  6
CONTINUOUS
 10
2.09945
 20
6.95835
 30
 0
 11
2.09945
 21
6.85744
  0
ARC
  8
Engraving
 62
   255
 39
0.016
  6
CONTINUOUS
 10
2.19587
 20
6.89108
 30
 0
 40
0.03588
 50
180.00000
 51
360.00000
  0
LINE
  8
Engraving
 62
   255
 39
0.016
  6
CONTINUOUS
 10
2.23174
 20
6.89108
 30
 0
 11
2.23174
 21
6.92471
  0
ARC
  8
Engraving
 62
   255
 39
0.016
  6
CONTINUOUS
 10
2.19587
 20
6.92471
 30
 0
 40
0.03588
 50
0.00000
 51
180.00000
  0
LINE
  8
Engraving
 62
   255
 39
0.016
  6
CONTINUOUS
 10
2.15999
 20
6.92471
 30
 0
 11
2.15999
 21
6.89108
  0
LINE
  8
Engraving
 62
   255
 39
0.016
  6
CONTINUOUS
 10
2.33038
 20
6.95835
 30
 0
 11
2.33038
 21
6.85744
  0
ARC
  8
Engraving
 62
   255
 39
0.016
  6
CONTINUOUS
 10
2.40098
 20
6.93234
 30
 0
 40
0.02660
 50
36.73449
 51
77.79505
  0
ARC
  8
Engraving
 62
   255
 39
0.016
  6
CONTINUOUS
 10
2.39310
 20
6.89648
 30
 0
 40
0.06332
 50
77.68434
 51
106.40648
  0
ARC
  8
Engraving
 62
   255
 39
0.016
  6
CONTINUOUS
 10
2.38385
 20
6.92854
 30
 0
 40
0.02996
 50
106.75938
 51
144.31597
  0
ARC
  8
Engraving
 62
   255
 39
0.016
  6
CONTINUOUS
 10
2.37618
 20
6.93405
 30
 0
 40
0.02051
 50
144.32844
 51
251.30934
  0
LINE
  8
Engraving
 62
   255
 39
0.016
  6
CONTINUOUS
 10
2.36961
 20
6.91462
 30
 0
 11
2.40885
 21
6.90117
  0
ARC
  8
Engraving
 62
   255
 39
0.016
  6
CONTINUOUS
 10
2.40227
 20
6.88174
 30
 0
 40
0.02051
 50
-35.67156
 51
71.30934
  0
ARC
  8
Engraving
 62
   255
 39
0.016
  6
CONTINUOUS
 10
2.39460
 20
6.88725
 30
 0
 40
0.02996
 50
286.75938
 51
324.31597
  0
ARC
  8
Engraving
 62
   255
 39
0.016
  6
CONTINUOUS
 10
2.38536
 20
6.91931
 30
 0
 40
0.06332
 50
257.68434
 51
286.40648
  0
ARC
  8
Engraving
 62
   255
 39
0.016
  6
CONTINUOUS
 10
2.37747
 20
6.88344
 30
 0
 40
0.02660
 50
216.73449
 51
257.79505
  0
ARC
  8
Engraving
 62
   255
 39
0.016
  6
CONTINUOUS
 10
2.48508
 20
6.89108
 30
 0
 40
0.03588
 50
180.00000
 51
360.00000
  0
LINE
  8
Engraving
 62
   255
 39
0.016
  6
CONTINUOUS
 10
2.52096
 20
6.89108
 30
 0
 11
2.52096
 21
6.92471
  0
ARC
  8
Engraving
 62
   255
 39
0.016
  6
CONTINUOUS
 10
2.48508
 20
6.92471
 30
 0
 40
0.03588
 50
0.00000
 51
180.00000
  0
LINE
  8
Engraving
 62
   255
 39
0.016
  6
CONTINUOUS
 10
2.44920
 20
6.92471
 30
 0
 11
2.44920
 21
6.89108
  0
LINE
  8
Engraving
 62
   255
 39
0.016
  6
CONTINUOUS
 10
2.54786
 20
6.95835
 30
 0
 11
2.54786
 21
6.85744
  0
LINE
  8
Engraving
 62
   255
 39
0.016
  6
CONTINUOUS
 10
2.54786
 20
6.85744
 30
 0
 11
2.60392
 21
6.85744
  0
LINE
  8
Engraving
 62
   255
 39
0.016
  6
CONTINUOUS
 10
2.64203
 20
6.88547
 30
 0
 11
2.69809
 21
6.88547
  0
LINE
  8
Engraving
 62
   255
 39
0.016
  6
CONTINUOUS
 10
2.63082
 20
6.85744
 30
 0
 11
2.67006
 21
6.95835
  0
LINE
  8
Engraving
 62
   255
 39
0.016
  6
CONTINUOUS
 10
2.67006
 20
6.95835
 30
 0
 11
2.70930
 21
6.85744
  0
LINE
  8
Engraving
 62
   255
 39
0.016
  6
CONTINUOUS
 10
2.73617
 20
6.95835
 30
 0
 11
2.80344
 21
6.95835
  0
LINE
  8
Engraving
 62
   255
 39
0.016
  6
CONTINUOUS
 10
2.80344
 20
6.95835
 30
 0
 11
2.76981
 21
6.95835
  0
LINE
  8
Engraving
 62
   255
 39
0.016
  6
CONTINUOUS
 10
2.76981
 20
6.95835
 30
 0
 11
2.76981
 21
6.85744
  0
ARC
  8
Engraving
 62
   255
 39
0.016
  6
CONTINUOUS
 10
2.86622
 20
6.89108
 30
 0
 40
0.03588
 50
180.00000
 51
360.00000
  0
LINE
  8
Engraving
 62
   255
 39
0.016
  6
CONTINUOUS
 10
2.90210
 20
6.89108
 30
 0
 11
2.90210
 21
6.92471
  0
ARC
  8
Engraving
 62
   255
 39
0.016
  6
CONTINUOUS
 10
2.86622
 20
6.92471
 30
 0
 40
0.03588
 50
0.00000
 51
180.00000
  0
LINE
  8
Engraving
 62
   255
 39
0.016
  6
CONTINUOUS
 10
2.83034
 20
6.92471
 30
 0
 11
2.83034
 21
6.89108
  0
LINE
  8
Engraving
 62
   255
 39
0.016
  6
CONTINUOUS
 10
2.92901
 20
6.85744
 30
 0
 11
2.92901
 21
6.95835
  0
LINE
  8
Engraving
 62
   255
 39
0.016
  6
CONTINUOUS
 10
2.92901
 20
6.95835
 30
 0
 11
2.96600
 21
6.95835
  0
ARC
  8
Engraving
 62
   255
 39
0.016
  6
CONTINUOUS
 10
2.96600
 20
6.93312
 30
 0
 40
0.02523
 50
-90.00000
 51
90.00000
  0
LINE
  8
Engraving
 62
   255
 39
0.016
  6
CONTINUOUS
 10
2.96600
 20
6.90789
 30
 0
 11
2.92901
 21
6.90789
  0
LINE
  8
Engraving
 62
   255
 39
0.016
  6
CONTINUOUS
 10
2.92901
 20
6.90789
 30
 0
 11
2.96825
 21
6.90789
  0
LINE
  8
Engraving
 62
   255
 39
0.016
  6
CONTINUOUS
 10
2.96825
 20
6.90789
 30
 0
 11
2.99067
 21
6.85744
  0
LINE
  8
Engraving
 62
   255
 39
0.016
  6
CONTINUOUS
 10
3.13975
 20
6.95835
 30
 0
 11
3.08930
 21
6.95835
  0
LINE
  8
Engraving
 62
   255
 39
0.016
  6
CONTINUOUS
 10
3.08930
 20
6.95835
 30
 0
 11
3.08930
 21
6.91126
  0
ARC
  8
Engraving
 62
   255
 39
0.016
  6
CONTINUOUS
 10
3.11277
 20
6.88086
 30
 0
 40
0.03840
 50
84.85750
 51
127.66291
  0
ARC
  8
Engraving
 62
   255
 39
0.016
  6
CONTINUOUS
 10
3.11315
 20
6.88681
 30
 0
 40
0.03244
 50
-44.24474
 51
84.58605
  0
ARC
  8
Engraving
 62
   255
 39
0.016
  6
CONTINUOUS
 10
3.11477
 20
6.88537
 30
 0
 40
0.03028
 50
208.56608
 51
315.54698
  0
LINE
  8
Engraving
 62
   255
 39
0.016
  6
CONTINUOUS
 10
3.17113
 20
6.90789
 30
 0
 11
3.22943
 21
6.90789
  0
LINE
  8
Engraving
 62
   255
 39
0.016
  6
CONTINUOUS
 10
3.25633
 20
6.95274
 30
 0
 11
3.34602
 21
6.90789
  0
LINE
  8
Engraving
 62
   255
 39
0.016
  6
CONTINUOUS
 10
3.34602
 20
6.90789
 30
 0
 11
3.25633
 21
6.86417
  0
LINE
  8
Engraving
 62
   255
 39
0.016
  6
CONTINUOUS
 10
3.37402
 20
6.94826
 30
 0
 11
3.38075
 21
6.95386
  0
ARC
  8
Engraving
 62
   255
 39
0.016
  6
CONTINUOUS
 10
3.39893
 20
6.93280
 30
 0
 40
0.02782
 50
-40.79241
 51
130.79241
  0
LINE
  8
Engraving
 62
   255
 39
0.016
  6
CONTINUOUS
 10
3.41999
 20
6.91462
 30
 0
 11
3.37290
 21
6.85744
  0
LINE
  8
Engraving
 62
   255
 39
0.016
  6
CONTINUOUS
 10
3.37290
 20
6.85744
 30
 0
 11
3.42896
 21
6.85744
  0
LINE
  8
Engraving
 62
   255
 39
0.016
  6
CONTINUOUS
 10
3.48949
 20
6.95831
 30
 0
 11
3.45586
 21
6.87422
  0
LINE
  8
Engraving
 62
   255
 39
0.016
  6
CONTINUOUS
 10
3.45586
 20
6.87422
 30
 0
 11
3.51191
 21
6.87422
  0
LINE
  8
Engraving
 62
   255
 39
0.016
  6
CONTINUOUS
 10
3.51191
 20
6.87422
 30
 0
 11
3.50070
 21
6.87422
  0
LINE
  8
Engraving
 62
   255
 39
0.016
  6
CONTINUOUS
 10
3.50070
 20
6.87422
 30
 0
 11
3.50070
 21
6.89104
  0
LINE
  8
Engraving
 62
   255
 39
0.016
  6
CONTINUOUS
 10
3.50070
 20
6.89104
 30
 0
 11
3.50070
 21
6.85740
  0
LINE
  8
Engraving
 62
   255
 39
0.016
  6
CONTINUOUS
 10
3.53881
 20
6.95827
 30
 0
 11
3.57244
 21
6.85736
  0
LINE
  8
Engraving
 62
   255
 39
0.016
  6
CONTINUOUS
 10
3.57244
 20
6.85736
 30
 0
 11
3.60608
 21
6.95827
  0
ARC
  8
Engraving
 62
   255
 39
0.016
  6
CONTINUOUS
 10
2.04303
 20
9.79017
 30
 0
 40
0.03588
 50
180.00000
 51
360.00000
  0
LINE
  8
Engraving
 62
   255
 39
0.016
  6
CONTINUOUS
 10
2.07891
 20
9.79017
 30
 0
 11
2.07891
 21
9.82381
  0
ARC
  8
Engraving
 62
   255
 39
0.016
  6
CONTINUOUS
 10
2.04303
 20
9.82381
 30
 0
 40
0.03588
 50
0.00000
 51
180.00000
  0
LINE
  8
Engraving
 62
   255
 39
0.016
  6
CONTINUOUS
 10
2.00715
 20
9.82381
 30
 0
 11
2.00715
 21
9.79017
  0
LINE
  8
Engraving
 62
   255
 39
0.016
  6
CONTINUOUS
 10
2.10582
 20
9.75654
 30
 0
 11
2.10582
 21
9.85744
  0
LINE
  8
Engraving
 62
   255
 39
0.016
  6
CONTINUOUS
 10
2.10582
 20
9.85744
 30
 0
 11
2.14281
 21
9.85744
  0
ARC
  8
Engraving
 62
   255
 39
0.016
  6
CONTINUOUS
 10
2.14281
 20
9.83221
 30
 0
 40
0.02523
 50
-90.00000
 51
90.00000
  0
LINE
  8
Engraving
 62
   255
 39
0.016
  6
CONTINUOUS
 10
2.14281
 20
9.80699
 30
 0
 11
2.10582
 21
9.80699
  0
LINE
  8
Engraving
 62
   255
 39
0.016
  6
CONTINUOUS
 10
2.19326
 20
9.85744
 30
 0
 11
2.26053
 21
9.85744
  0
LINE
  8
Engraving
 62
   255
 39
0.016
  6
CONTINUOUS
 10
2.26053
 20
9.85744
 30
 0
 11
2.22689
 21
9.85744
  0
LINE
  8
Engraving
 62
   255
 39
0.016
  6
CONTINUOUS
 10
2.22689
 20
9.85744
 30
 0
 11
2.22689
 21
9.75654
  0
ARC
  8
Engraving
 62
   255
 39
0.016
  6
CONTINUOUS
 10
2.32331
 20
9.79017
 30
 0
 40
0.03588
 50
180.00000
 51
360.00000
  0
LINE
  8
Engraving
 62
   255
 39
0.016
  6
CONTINUOUS
 10
2.35919
 20
9.79017
 30
 0
 11
2.35919
 21
9.82381
  0
ARC
  8
Engraving
 62
   255
 39
0.016
  6
CONTINUOUS
 10
2.32331
 20
9.82381
 30
 0
 40
0.03588
 50
0.00000
 51
180.00000
  0
LINE
  8
Engraving
 62
   255
 39
0.016
  6
CONTINUOUS
 10
2.28743
 20
9.82381
 30
 0
 11
2.28743
 21
9.79017
  0
LINE
  8
Engraving
 62
   255
 39
0.016
  6
CONTINUOUS
 10
2.45782
 20
9.75654
 30
 0
 11
2.45782
 21
9.85744
  0
LINE
  8
Engraving
 62
   255
 39
0.016
  6
CONTINUOUS
 10
2.45782
 20
9.85744
 30
 0
 11
2.49482
 21
9.85744
  0
ARC
  8
Engraving
 62
   255
 39
0.016
  6
CONTINUOUS
 10
2.49482
 20
9.83221
 30
 0
 40
0.02523
 50
-90.00000
 51
90.00000
  0
LINE
  8
Engraving
 62
   255
 39
0.016
  6
CONTINUOUS
 10
2.49482
 20
9.80699
 30
 0
 11
2.45782
 21
9.80699
  0
LINE
  8
Engraving
 62
   255
 39
0.016
  6
CONTINUOUS
 10
2.45782
 20
9.80699
 30
 0
 11
2.49707
 21
9.80699
  0
LINE
  8
Engraving
 62
   255
 39
0.016
  6
CONTINUOUS
 10
2.49707
 20
9.80699
 30
 0
 11
2.51949
 21
9.75654
  0
LINE
  8
Engraving
 62
   255
 39
0.016
  6
CONTINUOUS
 10
2.54527
 20
9.80699
 30
 0
 11
2.60132
 21
9.80699
  0
LINE
  8
Engraving
 62
   255
 39
0.016
  6
CONTINUOUS
 10
2.61254
 20
9.85744
 30
 0
 11
2.54527
 21
9.85744
  0
LINE
  8
Engraving
 62
   255
 39
0.016
  6
CONTINUOUS
 10
2.54527
 20
9.85744
 30
 0
 11
2.54527
 21
9.75654
  0
LINE
  8
Engraving
 62
   255
 39
0.016
  6
CONTINUOUS
 10
2.54527
 20
9.75654
 30
 0
 11
2.61254
 21
9.75654
  0
LINE
  8
Engraving
 62
   255
 39
0.016
  6
CONTINUOUS
 10
2.63944
 20
9.85744
 30
 0
 11
2.63944
 21
9.75654
  0
LINE
  8
Engraving
 62
   255
 39
0.016
  6
CONTINUOUS
 10
2.63944
 20
9.75654
 30
 0
 11
2.69550
 21
9.75654
  0
LINE
  8
Engraving
 62
   255
 39
0.016
  6
CONTINUOUS
 10
2.73360
 20
9.78456
 30
 0
 11
2.78966
 21
9.78456
  0
LINE
  8
Engraving
 62
   255
 39
0.016
  6
CONTINUOUS
 10
2.72239
 20
9.75654
 30
 0
 11
2.76163
 21
9.85744
  0
LINE
  8
Engraving
 62
   255
 39
0.016
  6
CONTINUOUS
 10
2.76163
 20
9.85744
 30
 0
 11
2.80087
 21
9.75654
  0
LINE
  8
Engraving
 62
   255
 39
0.016
  6
CONTINUOUS
 10
2.82775
 20
9.85744
 30
 0
 11
2.86138
 21
9.80699
  0
LINE
  8
Engraving
 62
   255
 39
0.016
  6
CONTINUOUS
 10
2.86138
 20
9.80699
 30
 0
 11
2.86138
 21
9.75654
  0
LINE
  8
Engraving
 62
   255
 39
0.016
  6
CONTINUOUS
 10
2.86138
 20
9.75654
 30
 0
 11
2.86138
 21
9.80699
  0
LINE
  8
Engraving
 62
   255
 39
0.016
  6
CONTINUOUS
 10
2.86138
 20
9.80699
 30
 0
 11
2.89502
 21
9.85744
  0
CIRCLE
  8
Engraving
 62
   92
 39
0.004
  6
CONTINUOUS
 10
4.26469
 20
7.41291
 30
 0
 40
0.13780
  0
CIRCLE
  8
Engraving
 62
   92
 39
0.004
  6
CONTINUOUS
 10
4.26469
 20
7.41291
 30
 0
 40
0.09843
  0
CIRCLE
  8
Engraving
 62
   92
 39
0.004
  6
CONTINUOUS
 10
4.26469
 20
7.41291
 30
 0
 40
0.05906
  0
CIRCLE
  8
Engraving
 62
   92
 39
0.004
  6
CONTINUOUS
 10
0.83949
 20
7.41291
 30
 0
 40
0.13780
  0
CIRCLE
  8
Engraving
 62
   92
 39
0.004
  6
CONTINUOUS
 10
0.83949
 20
7.41291
 30
 0
 40
0.09843
  0
CIRCLE
  8
Engraving
 62
   92
 39
0.004
  6
CONTINUOUS
 10
0.83949
 20
7.41291
 30
 0
 40
0.05906
  0
CIRCLE
  8
Engraving
 62
   92
 39
0.004
  6
CONTINUOUS
 10
4.26469
 20
4.89350
 30
 0
 40
0.13780
  0
CIRCLE
  8
Engraving
 62
   92
 39
0.004
  6
CONTINUOUS
 10
4.26469
 20
4.89350
 30
 0
 40
0.09843
  0
CIRCLE
  8
Engraving
 62
   92
 39
0.004
  6
CONTINUOUS
 10
4.26469
 20
4.89350
 30
 0
 40
0.05906
  0
CIRCLE
  8
Engraving
 62
   92
 39
0.004
  6
CONTINUOUS
 10
0.83949
 20
4.89366
 30
 0
 40
0.13780
  0
CIRCLE
  8
Engraving
 62
   92
 39
0.004
  6
CONTINUOUS
 10
0.83949
 20
4.89366
 30
 0
 40
0.09843
  0
CIRCLE
  8
Engraving
 62
   92
 39
0.004
  6
CONTINUOUS
 10
0.83949
 20
4.89366
 30
 0
 40
0.05906
  0
CIRCLE
  8
Engraving
 62
   92
 39
0.004
  6
CONTINUOUS
 10
0.58669
 20
10.60732
 30
 0
 40
0.13780
  0
CIRCLE
  8
Engraving
 62
   92
 39
0.004
  6
CONTINUOUS
 10
0.58669
 20
10.60732
 30
 0
 40
0.09843
  0
CIRCLE
  8
Engraving
 62
   92
 39
0.004
  6
CONTINUOUS
 10
0.58669
 20
10.60732
 30
 0
 40
0.04921
  0
CIRCLE
  8
Engraving
 62
   92
 39
0.004
  6
CONTINUOUS
 10
0.58669
 20
8.87504
 30
 0
 40
0.13780
  0
CIRCLE
  8
Engraving
 62
   92
 39
0.004
  6
CONTINUOUS
 10
0.58669
 20
8.87504
 30
 0
 40
0.09843
  0
CIRCLE
  8
Engraving
 62
   92
 39
0.004
  6
CONTINUOUS
 10
0.58669
 20
8.87504
 30
 0
 40
0.04921
  0
CIRCLE
  8
Engraving
 62
   92
 39
0.004
  6
CONTINUOUS
 10
4.60244
 20
10.60732
 30
 0
 40
0.13780
  0
CIRCLE
  8
Engraving
 62
   92
 39
0.004
  6
CONTINUOUS
 10
4.60244
 20
10.60732
 30
 0
 40
0.09843
  0
CIRCLE
  8
Engraving
 62
   92
 39
0.004
  6
CONTINUOUS
 10
4.60244
 20
10.60732
 30
 0
 40
0.04921
  0
CIRCLE
  8
Engraving
 62
   92
 39
0.004
  6
CONTINUOUS
 10
4.60244
 20
8.87504
 30
 0
 40
0.13780
  0
CIRCLE
  8
Engraving
 62
   92
 39
0.004
  6
CONTINUOUS
 10
4.60244
 20
8.87504
 30
 0
 40
0.09843
  0
CIRCLE
  8
Engraving
 62
   92
 39
0.004
  6
CONTINUOUS
 10
4.60244
 20
8.87504
 30
 0
 40
0.04921
  0
CIRCLE
  8
Engraving
 62
   92
 39
0.004
  6
CONTINUOUS
 10
4.16346
 20
15.33406
 30
 0
 40
0.13780
  0
CIRCLE
  8
Engraving
 62
   92
 39
0.004
  6
CONTINUOUS
 10
4.16346
 20
15.33406
 30
 0
 40
0.09843
  0
CIRCLE
  8
Engraving
 62
   92
 39
0.004
  6
CONTINUOUS
 10
4.16346
 20
15.33406
 30
 0
 40
0.04921
  0
CIRCLE
  8
Engraving
 62
   92
 39
0.004
  6
CONTINUOUS
 10
1.20862
 20
15.33067
 30
 0
 40
0.13780
  0
CIRCLE
  8
Engraving
 62
   92
 39
0.004
  6
CONTINUOUS
 10
1.20862
 20
15.33067
 30
 0
 40
0.09843
  0
CIRCLE
  8
Engraving
 62
   92
 39
0.004
  6
CONTINUOUS
 10
1.20862
 20
15.33067
 30
 0
 40
0.04921
  0
CIRCLE
  8
Engraving
 62
   92
 39
0.004
  6
CONTINUOUS
 10
4.16039
 20
17.23134
 30
 0
 40
0.13780
  0
CIRCLE
  8
Engraving
 62
   92
 39
0.004
  6
CONTINUOUS
 10
4.16039
 20
17.23134
 30
 0
 40
0.09843
  0
CIRCLE
  8
Engraving
 62
   92
 39
0.004
  6
CONTINUOUS
 10
4.16039
 20
17.23134
 30
 0
 40
0.04921
  0
CIRCLE
  8
Engraving
 62
   92
 39
0.004
  6
CONTINUOUS
 10
0.95516
 20
17.23126
 30
 0
 40
0.13780
  0
CIRCLE
  8
Engraving
 62
   92
 39
0.004
  6
CONTINUOUS
 10
0.95516
 20
17.23126
 30
 0
 40
0.09843
  0
CIRCLE
  8
Engraving
 62
   92
 39
0.004
  6
CONTINUOUS
 10
0.95516
 20
17.23126
 30
 0
 40
0.04921
  0
CIRCLE
  8
Engraving
 62
   92
 39
0.004
  6
CONTINUOUS
 10
3.21031
 20
13.86154
 30
 0
 40
0.13780
  0
CIRCLE
  8
Engraving
 62
   92
 39
0.004
  6
CONTINUOUS
 10
3.21031
 20
13.86154
 30
 0
 40
0.09843
  0
CIRCLE
  8
Engraving
 62
   92
 39
0.004
  6
CONTINUOUS
 10
3.21031
 20
13.86154
 30
 0
 40
0.04921
  0
CIRCLE
  8
Engraving
 62
   92
 39
0.004
  6
CONTINUOUS
 10
2.11059
 20
13.85969
 30
 0
 40
0.13780
  0
CIRCLE
  8
Engraving
 62
   92
 39
0.004
  6
CONTINUOUS
 10
2.11059
 20
13.85969
 30
 0
 40
0.09843
  0
CIRCLE
  8
Engraving
 62
   92
 39
0.004
  6
CONTINUOUS
 10
2.11059
 20
13.85969
 30
 0
 40
0.04921
  0
CIRCLE
  8
Engraving
 62
   92
 39
0.004
  6
CONTINUOUS
 10
1.50563
 20
11.86240
 30
 0
 40
0.13780
  0
CIRCLE
  8
Engraving
 62
   92
 39
0.004
  6
CONTINUOUS
 10
1.50563
 20
11.86240
 30
 0
 40
0.09843
  0
CIRCLE
  8
Engraving
 62
   92
 39
0.004
  6
CONTINUOUS
 10
1.50563
 20
11.86240
 30
 0
 40
0.04921
  0
CIRCLE
  8
Engraving
 62
   92
 39
0.004
  6
CONTINUOUS
 10
3.40874
 20
11.80878
 30
 0
 40
0.13780
  0
CIRCLE
  8
Engraving
 62
   92
 39
0.004
  6
CONTINUOUS
 10
3.40874
 20
11.80878
 30
 0
 40
0.09843
  0
CIRCLE
  8
Engraving
 62
   92
 39
0.004
  6
CONTINUOUS
 10
3.40874
 20
11.80878
 30
 0
 40
0.04921
  0
CIRCLE
  8
Engraving
 62
   92
 39
0.004
  6
CONTINUOUS
 10
0.25000
 20
0.25000
 30
 0
 40
0.13780
  0
CIRCLE
  8
Engraving
 62
   92
 39
0.004
  6
CONTINUOUS
 10
0.25000
 20
0.25000
 30
 0
 40
0.09843
  0
CIRCLE
  8
Engraving
 62
   92
 39
0.004
  6
CONTINUOUS
 10
0.25000
 20
0.25000
 30
 0
 40
0.06890
  0
CIRCLE
  8
Engraving
 62
   92
 39
0.004
  6
CONTINUOUS
 10
4.75000
 20
0.25000
 30
 0
 40
0.13780
  0
CIRCLE
  8
Engraving
 62
   92
 39
0.004
  6
CONTINUOUS
 10
4.75000
 20
0.25000
 30
 0
 40
0.09843
  0
CIRCLE
  8
Engraving
 62
   92
 39
0.004
  6
CONTINUOUS
 10
4.75000
 20
0.25000
 30
 0
 40
0.06890
  0
CIRCLE
  8
Engraving
 62
   92
 39
0.004
  6
CONTINUOUS
 10
0.25000
 20
17.75000
 30
 0
 40
0.13780
  0
CIRCLE
  8
Engraving
 62
   92
 39
0.004
  6
CONTINUOUS
 10
0.25000
 20
17.75000
 30
 0
 40
0.09843
  0
CIRCLE
  8
Engraving
 62
   92
 39
0.004
  6
CONTINUOUS
 10
0.25000
 20
17.75000
 30
 0
 40
0.06890
  0
CIRCLE
  8
Engraving
 62
   92
 39
0.004
  6
CONTINUOUS
 10
4.75000
 20
17.75000
 30
 0
 40
0.13780
  0
CIRCLE
  8
Engraving
 62
   92
 39
0.004
  6
CONTINUOUS
 10
4.75000
 20
17.75000
 30
 0
 40
0.09843
  0
CIRCLE
  8
Engraving
 62
   92
 39
0.004
  6
CONTINUOUS
 10
4.75000
 20
17.75000
 30
 0
 40
0.06890
  0
CIRCLE
  8
Engraving
 62
   92
 39
0.004
  6
CONTINUOUS
 10
0.25000
 20
11.91669
 30
 0
 40
0.13780
  0
CIRCLE
  8
Engraving
 62
   92
 39
0.004
  6
CONTINUOUS
 10
0.25000
 20
11.91669
 30
 0
 40
0.09843
  0
CIRCLE
  8
Engraving
 62
   92
 39
0.004
  6
CONTINUOUS
 10
0.25000
 20
11.91669
 30
 0
 40
0.06890
  0
CIRCLE
  8
Engraving
 62
   92
 39
0.004
  6
CONTINUOUS
 10
0.25000
 20
6.08331
 30
 0
 40
0.13780
  0
CIRCLE
  8
Engraving
 62
   92
 39
0.004
  6
CONTINUOUS
 10
0.25000
 20
6.08331
 30
 0
 40
0.09843
  0
CIRCLE
  8
Engraving
 62
   92
 39
0.004
  6
CONTINUOUS
 10
0.25000
 20
6.08331
 30
 0
 40
0.06890
  0
CIRCLE
  8
Engraving
 62
   92
 39
0.004
  6
CONTINUOUS
 10
4.75000
 20
11.91669
 30
 0
 40
0.13780
  0
CIRCLE
  8
Engraving
 62
   92
 39
0.004
  6
CONTINUOUS
 10
4.75000
 20
11.91669
 30
 0
 40
0.09843
  0
CIRCLE
  8
Engraving
 62
   92
 39
0.004
  6
CONTINUOUS
 10
4.75000
 20
11.91669
 30
 0
 40
0.06890
  0
CIRCLE
  8
Engraving
 62
   92
 39
0.004
  6
CONTINUOUS
 10
4.75000
 20
6.08331
 30
 0
 40
0.13780
  0
CIRCLE
  8
Engraving
 62
   92
 39
0.004
  6
CONTINUOUS
 10
4.75000
 20
6.08331
 30
 0
 40
0.09843
  0
CIRCLE
  8
Engraving
 62
   92
 39
0.004
  6
CONTINUOUS
 10
4.75000
 20
6.08331
 30
 0
 40
0.06890
  0
CIRCLE
  8
Engraving
 62
   92
 39
0.004
  6
CONTINUOUS
 10
2.50000
 20
14.83331
 30
 0
 40
0.13780
  0
CIRCLE
  8
Engraving
 62
   92
 39
0.004
  6
CONTINUOUS
 10
2.50000
 20
14.83331
 30
 0
 40
0.09843
  0
CIRCLE
  8
Engraving
 62
   92
 39
0.004
  6
CONTINUOUS
 10
2.50000
 20
14.83331
 30
 0
 40
0.06890
  0
CIRCLE
  8
Engraving
 62
   92
 39
0.004
  6
CONTINUOUS
 10
2.50000
 20
9.00000
 30
 0
 40
0.13780
  0
CIRCLE
  8
Engraving
 62
   92
 39
0.004
  6
CONTINUOUS
 10
2.50000
 20
9.00000
 30
 0
 40
0.09843
  0
CIRCLE
  8
Engraving
 62
   92
 39
0.004
  6
CONTINUOUS
 10
2.50000
 20
9.00000
 30
 0
 40
0.06890
  0
CIRCLE
  8
Engraving
 62
   92
 39
0.004
  6
CONTINUOUS
 10
2.50000
 20
3.16669
 30
 0
 40
0.13780
  0
CIRCLE
  8
Engraving
 62
   92
 39
0.004
  6
CONTINUOUS
 10
2.50000
 20
3.16669
 30
 0
 40
0.09843
  0
CIRCLE
  8
Engraving
 62
   92
 39
0.004
  6
CONTINUOUS
 10
2.50000
 20
3.16669
 30
 0
 40
0.06890
  0
CIRCLE
  8
Engraving
 62
   7
 39
0.004
  6
CONTINUOUS
 10
0.82083
 20
0.50945
 30
 0
 40
0.04472
  0
ARC
  8
Engraving
 62
   7
 39
0.004
  6
CONTINUOUS
 10
0.82083
 20
0.50945
 30
 0
 40
0.05598
 50
0.00000
 51
270.00000
  0
CIRCLE
  8
Engraving
 62
   7
 39
0.004
  6
CONTINUOUS
 10
0.78177
 20
6.45433
 30
 0
 40
0.04472
  0
ARC
  8
Engraving
 62
   7
 39
0.004
  6
CONTINUOUS
 10
0.78177
 20
6.45433
 30
 0
 40
0.05598
 50
0.00000
 51
270.00000
  0
LINE
  8
Reference_points
 62
   1
 39
0.004
  6
CONTINUOUS
 10
-0.15929
 20
0.00000
 30
 0
 11
0.15929
 21
0.00000
  0
LINE
  8
Reference_points
 62
   1
 39
0.004
  6
CONTINUOUS
 10
0.00000
 20
-0.15929
 30
 0
 11
0.00000
 21
0.15929
  0
LINE
  8
Reference_points
 62
   1
 39
0.004
  6
CONTINUOUS
 10
0.09071
 20
0.25000
 30
 0
 11
0.40929
 21
0.25000
  0
LINE
  8
Reference_points
 62
   1
 39
0.004
  6
CONTINUOUS
 10
0.25000
 20
0.09071
 30
 0
 11
0.25000
 21
0.40929
  0
LINE
  8
Reference_points
 62
   1
 39
0.004
  6
CONTINUOUS
 10
4.59071
 20
0.25000
 30
 0
 11
4.90929
 21
0.25000
  0
LINE
  8
Reference_points
 62
   1
 39
0.004
  6
CONTINUOUS
 10
4.75000
 20
0.09071
 30
 0
 11
4.75000
 21
0.40929
  0
LINE
  8
Reference_points
 62
   1
 39
0.004
  6
CONTINUOUS
 10
0.09071
 20
17.75000
 30
 0
 11
0.40929
 21
17.75000
  0
LINE
  8
Reference_points
 62
   1
 39
0.004
  6
CONTINUOUS
 10
0.25000
 20
17.59071
 30
 0
 11
0.25000
 21
17.90929
  0
LINE
  8
Reference_points
 62
   1
 39
0.004
  6
CONTINUOUS
 10
4.59071
 20
17.75000
 30
 0
 11
4.90929
 21
17.75000
  0
LINE
  8
Reference_points
 62
   1
 39
0.004
  6
CONTINUOUS
 10
4.75000
 20
17.59071
 30
 0
 11
4.75000
 21
17.90929
  0
LINE
  8
Reference_points
 62
   1
 39
0.004
  6
CONTINUOUS
 10
0.09071
 20
11.91669
 30
 0
 11
0.40929
 21
11.91669
  0
LINE
  8
Reference_points
 62
   1
 39
0.004
  6
CONTINUOUS
 10
0.25000
 20
11.75740
 30
 0
 11
0.25000
 21
12.07598
  0
LINE
  8
Reference_points
 62
   1
 39
0.004
  6
CONTINUOUS
 10
0.09071
 20
6.08331
 30
 0
 11
0.40929
 21
6.08331
  0
LINE
  8
Reference_points
 62
   1
 39
0.004
  6
CONTINUOUS
 10
0.25000
 20
5.92402
 30
 0
 11
0.25000
 21
6.24260
  0
LINE
  8
Reference_points
 62
   1
 39
0.004
  6
CONTINUOUS
 10
4.59071
 20
11.91669
 30
 0
 11
4.90929
 21
11.91669
  0
LINE
  8
Reference_points
 62
   1
 39
0.004
  6
CONTINUOUS
 10
4.75000
 20
11.75740
 30
 0
 11
4.75000
 21
12.07598
  0
LINE
  8
Reference_points
 62
   1
 39
0.004
  6
CONTINUOUS
 10
4.59071
 20
6.08331
 30
 0
 11
4.90929
 21
6.08331
  0
LINE
  8
Reference_points
 62
   1
 39
0.004
  6
CONTINUOUS
 10
4.75000
 20
5.92402
 30
 0
 11
4.75000
 21
6.24260
  0
LINE
  8
Reference_points
 62
   1
 39
0.004
  6
CONTINUOUS
 10
2.34071
 20
14.83331
 30
 0
 11
2.65929
 21
14.83331
  0
LINE
  8
Reference_points
 62
   1
 39
0.004
  6
CONTINUOUS
 10
2.50000
 20
14.67402
 30
 0
 11
2.50000
 21
14.99260
  0
LINE
  8
Reference_points
 62
   1
 39
0.004
  6
CONTINUOUS
 10
2.34071
 20
9.00000
 30
 0
 11
2.65929
 21
9.00000
  0
LINE
  8
Reference_points
 62
   1
 39
0.004
  6
CONTINUOUS
 10
2.50000
 20
8.84071
 30
 0
 11
2.50000
 21
9.15929
  0
LINE
  8
Reference_points
 62
   1
 39
0.004
  6
CONTINUOUS
 10
2.34071
 20
3.16669
 30
 0
 11
2.65929
 21
3.16669
  0
LINE
  8
Reference_points
 62
   1
 39
0.004
  6
CONTINUOUS
 10
2.50000
 20
3.00740
 30
 0
 11
2.50000
 21
3.32598
  0
LINE
  8
Reference_points
 62
   1
 39
0.004
  6
CONTINUOUS
 10
0.66154
 20
0.50945
 30
 0
 11
0.98012
 21
0.50945
  0
LINE
  8
Reference_points
 62
   1
 39
0.004
  6
CONTINUOUS
 10
0.82083
 20
0.35016
 30
 0
 11
0.82083
 21
0.66874
  0
LINE
  8
Reference_points
 62
   1
 39
0.004
  6
CONTINUOUS
 10
0.62248
 20
6.45433
 30
 0
 11
0.94106
 21
6.45433
  0
LINE
  8
Reference_points
 62
   1
 39
0.004
  6
CONTINUOUS
 10
0.78177
 20
6.29504
 30
 0
 11
0.78177
 21
6.61362
  0
LINE
  8
Reference_points
 62
   1
 39
0.004
  6
CONTINUOUS
 10
0.64201
 20
3.48189
 30
 0
 11
0.96059
 21
3.48189
  0
LINE
  8
Reference_points
 62
   1
 39
0.004
  6
CONTINUOUS
 10
0.80130
 20
3.32260
 30
 0
 11
0.80130
 21
3.64118
  0
LINE
  8
Reference_points
 62
   1
 39
0.004
  6
CONTINUOUS
 10
4.10539
 20
7.41291
 30
 0
 11
4.42398
 21
7.41291
  0
LINE
  8
Reference_points
 62
   1
 39
0.004
  6
CONTINUOUS
 10
4.26469
 20
7.25362
 30
 0
 11
4.26469
 21
7.57220
  0
LINE
  8
Reference_points
 62
   1
 39
0.004
  6
CONTINUOUS
 10
0.68020
 20
7.41291
 30
 0
 11
0.99878
 21
7.41291
  0
LINE
  8
Reference_points
 62
   1
 39
0.004
  6
CONTINUOUS
 10
0.83949
 20
7.25362
 30
 0
 11
0.83949
 21
7.57220
  0
LINE
  8
Reference_points
 62
   1
 39
0.004
  6
CONTINUOUS
 10
4.10539
 20
4.89350
 30
 0
 11
4.42398
 21
4.89350
  0
LINE
  8
Reference_points
 62
   1
 39
0.004
  6
CONTINUOUS
 10
4.26469
 20
4.73421
 30
 0
 11
4.26469
 21
5.05280
  0
LINE
  8
Reference_points
 62
   1
 39
0.004
  6
CONTINUOUS
 10
0.68020
 20
4.89366
 30
 0
 11
0.99878
 21
4.89366
  0
LINE
  8
Reference_points
 62
   1
 39
0.004
  6
CONTINUOUS
 10
0.83949
 20
4.73437
 30
 0
 11
0.83949
 21
5.05295
  0
LINE
  8
Reference_points
 62
   1
 39
0.004
  6
CONTINUOUS
 10
2.39280
 20
6.15323
 30
 0
 11
2.71138
 21
6.15323
  0
LINE
  8
Reference_points
 62
   1
 39
0.004
  6
CONTINUOUS
 10
2.55209
 20
5.99394
 30
 0
 11
2.55209
 21
6.31252
  0
LINE
  8
Reference_points
 62
   1
 39
0.004
  6
CONTINUOUS
 10
0.42740
 20
10.60732
 30
 0
 11
0.74598
 21
10.60732
  0
LINE
  8
Reference_points
 62
   1
 39
0.004
  6
CONTINUOUS
 10
0.58669
 20
10.44803
 30
 0
 11
0.58669
 21
10.76661
  0
LINE
  8
Reference_points
 62
   1
 39
0.004
  6
CONTINUOUS
 10
0.42740
 20
8.87504
 30
 0
 11
0.74598
 21
8.87504
  0
LINE
  8
Reference_points
 62
   1
 39
0.004
  6
CONTINUOUS
 10
0.58669
 20
8.71575
 30
 0
 11
0.58669
 21
9.03433
  0
LINE
  8
Reference_points
 62
   1
 39
0.004
  6
CONTINUOUS
 10
4.44315
 20
10.60732
 30
 0
 11
4.76173
 21
10.60732
  0
LINE
  8
Reference_points
 62
   1
 39
0.004
  6
CONTINUOUS
 10
4.60244
 20
10.44803
 30
 0
 11
4.60244
 21
10.76661
  0
LINE
  8
Reference_points
 62
   1
 39
0.004
  6
CONTINUOUS
 10
4.44315
 20
8.87504
 30
 0
 11
4.76173
 21
8.87504
  0
LINE
  8
Reference_points
 62
   1
 39
0.004
  6
CONTINUOUS
 10
4.60244
 20
8.71575
 30
 0
 11
4.60244
 21
9.03433
  0
LINE
  8
Reference_points
 62
   1
 39
0.004
  6
CONTINUOUS
 10
2.43528
 20
9.74118
 30
 0
 11
2.75386
 21
9.74118
  0
LINE
  8
Reference_points
 62
   1
 39
0.004
  6
CONTINUOUS
 10
2.59457
 20
9.58189
 30
 0
 11
2.59457
 21
9.90047
  0
LINE
  8
Reference_points
 62
   1
 39
0.004
  6
CONTINUOUS
 10
4.00417
 20
15.33406
 30
 0
 11
4.32276
 21
15.33406
  0
LINE
  8
Reference_points
 62
   1
 39
0.004
  6
CONTINUOUS
 10
4.16346
 20
15.17476
 30
 0
 11
4.16346
 21
15.49335
  0
LINE
  8
Reference_points
 62
   1
 39
0.004
  6
CONTINUOUS
 10
1.04933
 20
15.33067
 30
 0
 11
1.36791
 21
15.33067
  0
LINE
  8
Reference_points
 62
   1
 39
0.004
  6
CONTINUOUS
 10
1.20862
 20
15.17138
 30
 0
 11
1.20862
 21
15.48996
  0
LINE
  8
Reference_points
 62
   1
 39
0.004
  6
CONTINUOUS
 10
4.00110
 20
17.23134
 30
 0
 11
4.31969
 21
17.23134
  0
LINE
  8
Reference_points
 62
   1
 39
0.004
  6
CONTINUOUS
 10
4.16039
 20
17.07205
 30
 0
 11
4.16039
 21
17.39063
  0
LINE
  8
Reference_points
 62
   1
 39
0.004
  6
CONTINUOUS
 10
0.79587
 20
17.23126
 30
 0
 11
1.11445
 21
17.23126
  0
LINE
  8
Reference_points
 62
   1
 39
0.004
  6
CONTINUOUS
 10
0.95516
 20
17.07197
 30
 0
 11
0.95516
 21
17.39055
  0
LINE
  8
Reference_points
 62
   1
 39
0.004
  6
CONTINUOUS
 10
2.40000
 20
16.28098
 30
 0
 11
2.71858
 21
16.28098
  0
LINE
  8
Reference_points
 62
   1
 39
0.004
  6
CONTINUOUS
 10
2.55929
 20
16.12169
 30
 0
 11
2.55929
 21
16.44028
  0
LINE
  8
Reference_points
 62
   1
 39
0.004
  6
CONTINUOUS
 10
3.05102
 20
13.86154
 30
 0
 11
3.36961
 21
13.86154
  0
LINE
  8
Reference_points
 62
   1
 39
0.004
  6
CONTINUOUS
 10
3.21031
 20
13.70224
 30
 0
 11
3.21031
 21
14.02083
  0
LINE
  8
Reference_points
 62
   1
 39
0.004
  6
CONTINUOUS
 10
1.95130
 20
13.85969
 30
 0
 11
2.26988
 21
13.85969
  0
LINE
  8
Reference_points
 62
   1
 39
0.004
  6
CONTINUOUS
 10
2.11059
 20
13.70039
 30
 0
 11
2.11059
 21
14.01898
  0
LINE
  8
Reference_points
 62
   1
 39
0.004
  6
CONTINUOUS
 10
1.34634
 20
11.86240
 30
 0
 11
1.66492
 21
11.86240
  0
LINE
  8
Reference_points
 62
   1
 39
0.004
  6
CONTINUOUS
 10
1.50563
 20
11.70311
 30
 0
 11
1.50563
 21
12.02169
  0
LINE
  8
Reference_points
 62
   1
 39
0.004
  6
CONTINUOUS
 10
3.24945
 20
11.80878
 30
 0
 11
3.56803
 21
11.80878
  0
LINE
  8
Reference_points
 62
   1
 39
0.004
  6
CONTINUOUS
 10
3.40874
 20
11.64949
 30
 0
 11
3.40874
 21
11.96807
  0
LINE
  8
Reference_points
 62
   1
 39
0.004
  6
CONTINUOUS
 10
2.29787
 20
12.83516
 30
 0
 11
2.61646
 21
12.83516
  0
LINE
  8
Reference_points
 62
   1
 39
0.004
  6
CONTINUOUS
 10
2.45717
 20
12.67587
 30
 0
 11
2.45717
 21
12.99445
  0
LINE
  8
Reference_points
 62
   1
 39
0.004
  6
CONTINUOUS
 10
1.36992
 20
16.64122
 30
 0
 11
1.68850
 21
16.64122
  0
LINE
  8
Reference_points
 62
   1
 39
0.004
  6
CONTINUOUS
 10
1.52921
 20
16.48193
 30
 0
 11
1.52921
 21
16.80051
  0
LINE
  8
Reference_points
 62
   1
 39
0.004
  6
CONTINUOUS
 10
1.68850
 20
13.28496
 30
 0
 11
2.00709
 21
13.28496
  0
LINE
  8
Reference_points
 62
   1
 39
0.004
  6
CONTINUOUS
 10
1.84780
 20
13.12567
 30
 0
 11
1.84780
 21
13.44425
  0
LINE
  8
Reference_points
 62
   1
 39
0.004
  6
CONTINUOUS
 10
1.72035
 20
6.84957
 30
 0
 11
2.03894
 21
6.84957
  0
LINE
  8
Reference_points
 62
   1
 39
0.004
  6
CONTINUOUS
 10
1.87965
 20
6.69028
 30
 0
 11
1.87965
 21
7.00886
  0
LINE
  8
Reference_points
 62
   1
 39
0.004
  6
CONTINUOUS
 10
1.84780
 20
9.74866
 30
 0
 11
2.16638
 21
9.74866
  0
LINE
  8
Reference_points
 62
   1
 39
0.004
  6
CONTINUOUS
 10
2.00709
 20
9.58937
 30
 0
 11
2.00709
 21
9.90795
  0
ENDSEC
  0
EOF

